<svg width="448" height="222" viewBox="0 0 448 222" fill="none" xmlns="http://www.w3.org/2000/svg">
<path d="M64.418 39.8002C65.258 39.8002 66.098 40.1602 66.818 40.5202C67.778 41.1202 68.258 41.8402 68.018 42.3202C67.418 43.0402 66.698 42.8002 65.978 42.9202C64.178 43.4002 62.378 43.6402 60.698 44.3602C50.138 48.3202 38.858 53.6002 30.698 61.6402C29.498 62.8402 28.058 64.0402 26.738 65.1202C25.778 65.8402 24.938 66.0802 24.098 66.0802C23.258 66.0802 22.538 65.8402 21.818 65.3602C21.218 65.0002 21.098 64.1602 21.698 63.5602C22.658 62.7202 23.498 61.7602 24.578 61.0402C33.338 54.3202 41.258 40.8802 42.818 29.7202C43.058 28.6402 43.058 27.4402 42.818 26.3602C42.578 25.6402 42.218 25.2802 41.378 25.2802C38.258 25.2802 33.338 29.9602 31.298 32.2402C18.338 46.5202 11.378 65.6002 6.81801 84.0802C6.21801 86.3602 5.85802 88.7602 5.73802 91.0402C5.73802 92.7202 4.53802 93.2002 3.09802 93.2002C2.73802 93.2002 2.25802 93.2002 2.01802 93.0802C1.05802 92.9602 0.458008 92.3602 0.458008 91.2802C0.818008 84.4402 0.93801 77.6002 1.89801 70.6402C4.89801 49.8802 10.058 29.6002 16.298 9.44018C16.658 8.36018 17.258 7.88017 18.098 7.88017C18.218 7.88017 18.458 7.88018 18.698 8.00018C19.058 8.12018 19.418 8.24018 19.658 8.36018C21.098 9.08018 21.218 9.32018 20.858 11.0002C20.018 14.1202 19.178 17.3602 18.218 20.4802C14.738 32.2402 11.978 44.1202 9.45801 56.1202C9.21801 56.8402 8.85801 57.6802 9.33801 58.5202C10.298 57.9202 10.538 56.9602 10.898 56.1202C15.458 45.8002 28.058 22.5202 39.818 22.5202C44.018 22.5202 47.018 25.4002 47.138 29.8402C47.138 33.8002 45.938 37.7602 44.498 41.7202C43.778 43.2802 42.938 44.8402 42.218 46.4002C41.978 47.0002 41.498 47.4802 41.858 48.0802H42.218C42.818 48.0802 43.298 47.6002 43.898 47.3602C48.698 44.9602 59.018 39.8002 64.418 39.8002ZM63.883 55.5202C63.403 52.0402 63.643 48.3202 64.483 44.2402C65.203 43.2802 64.603 41.9602 65.203 40.7602C67.603 36.0802 69.763 31.4002 73.003 27.0802C76.363 22.7602 82.603 16.1602 88.363 16.1602C92.683 16.1602 95.683 20.2402 93.883 24.6802C90.403 33.2002 80.083 40.2802 71.683 42.9202C69.883 43.4002 69.283 44.3602 68.923 45.9202C68.083 49.5202 67.843 53.1202 68.323 56.6002C68.683 59.6002 69.523 60.8002 71.443 60.8002C76.963 60.8002 85.483 53.3602 89.203 49.7602C92.083 47.0002 94.843 44.2402 97.723 41.4802C99.043 40.2802 99.883 39.8002 100.723 39.8002C101.443 39.8002 102.043 40.1602 103.003 40.7602C103.843 41.3602 103.843 41.8402 103.003 42.6802C99.283 46.4002 95.563 50.0002 91.723 53.6002C87.043 57.9202 80.083 63.5602 73.483 63.5602C68.563 63.5602 64.723 60.5602 63.883 55.5202ZM72.403 36.9202C72.283 37.2802 72.043 37.7602 72.403 38.2402C72.523 38.2402 72.763 38.3602 73.003 38.2402C79.003 35.2402 87.883 28.6402 89.923 21.8002C90.163 21.0802 90.523 20.3602 90.043 19.7602C89.923 19.6402 89.683 19.5202 89.443 19.5202C89.083 19.5202 88.483 19.8802 88.123 20.0002C81.643 22.4002 75.403 31.1602 72.403 36.9202ZM91.142 106.76C91.022 105.08 91.262 103.52 91.742 101.84C95.822 88.4002 111.782 71.7202 121.862 62.8402C123.782 61.4002 125.102 60.2002 125.822 57.9202C129.422 47.8402 133.022 37.7602 136.502 27.5602C136.862 26.8402 137.102 26.0002 136.982 25.1602H136.622C135.662 25.1602 135.062 26.0002 134.342 26.6002C129.782 30.5602 125.102 34.6402 120.542 38.7202C116.942 41.8402 113.342 45.2002 109.502 48.0802C108.062 49.1602 106.502 50.1202 105.062 51.0802C103.982 51.6802 103.022 51.9202 101.942 51.9202C101.582 51.9202 101.222 51.9202 100.862 51.8002C98.222 51.4402 97.022 49.8802 97.622 47.1202C100.262 35.9602 114.782 19.5202 126.902 19.5202C128.582 19.5202 130.262 19.8802 131.822 20.7202C132.182 20.9602 132.662 21.0802 133.022 21.0802C133.622 21.0802 134.222 20.9602 134.942 20.4802C136.142 19.8802 137.222 19.5202 138.182 19.5202C140.702 19.5202 142.382 21.4402 142.022 24.5602C141.782 27.3202 140.702 30.0802 139.862 32.8402C137.942 38.7202 135.782 44.4802 133.862 50.2402C133.502 51.0802 132.902 51.9202 133.262 52.8802C134.462 52.8802 135.302 51.9202 136.142 51.3202C140.822 47.8402 145.742 44.6002 150.782 41.7202C151.262 41.4802 151.742 41.2402 152.102 40.8802C153.062 40.2802 153.902 39.9202 154.742 39.9202C155.582 39.9202 156.422 40.4002 157.262 41.1202C157.502 41.3602 157.982 41.6002 157.862 42.2002C157.262 43.1602 156.062 43.4002 155.102 44.0002C146.942 48.5602 139.382 54.2002 131.942 60.0802C130.142 61.4002 129.062 63.0802 128.222 65.1202C126.062 71.1202 123.542 77.0002 120.782 82.7602C117.062 90.5602 105.422 110.6 95.822 110.6C93.302 110.6 91.262 109.52 91.142 106.76ZM96.662 103.64C96.422 104.84 95.462 106.64 96.782 107.12H97.142C98.102 107.12 99.062 105.92 99.902 105.2C109.382 96.4402 115.742 83.2402 120.422 71.4802C120.422 71.2402 120.302 71.1202 120.302 70.8802C119.342 70.8802 118.862 71.7202 118.262 72.4402C111.662 79.0402 97.982 94.1602 96.662 103.64ZM103.622 44.8402C103.262 45.5602 102.782 46.2802 103.262 46.8802C103.382 46.8802 103.382 47.0002 103.502 47.0002C104.222 47.0002 107.822 43.8802 108.422 43.4002C115.502 37.1602 122.582 30.9202 129.542 24.6802C129.902 24.4402 130.142 24.0802 130.382 23.8402C130.742 23.3602 130.502 22.5202 130.022 22.4002C128.822 22.4002 128.102 22.4002 126.902 22.6402C115.862 26.0002 108.422 34.7602 103.622 44.8402ZM154.291 59.3602C151.291 59.3602 149.371 57.4402 149.491 54.3202C149.491 51.8002 150.091 49.4002 151.051 47.0002C155.011 36.3202 164.731 21.6802 177.451 21.6802C179.851 21.6802 182.251 22.2802 184.171 23.4802C184.891 23.9602 185.251 24.2002 185.611 24.2002C186.091 24.2002 186.571 23.7202 187.531 22.8802C189.451 20.8402 191.371 18.6802 193.531 16.8802C194.851 15.8002 195.811 15.2002 196.771 15.2002C197.491 15.2002 198.211 15.5602 199.171 16.0402C200.611 16.8802 201.091 18.0802 200.491 19.7602C199.771 22.4002 198.931 25.1602 198.091 27.8002C196.411 33.2002 194.611 38.6002 192.931 44.1202C190.891 50.9602 189.211 57.8002 188.371 64.7602C188.011 68.0002 187.891 71.2402 188.131 74.4802C188.131 75.4402 188.371 76.4002 188.611 77.4802C188.731 78.2002 189.091 78.5602 189.571 78.4402C191.371 77.9602 196.771 71.1202 197.971 69.5602C202.651 63.0802 207.331 56.6002 212.131 50.2402C213.931 47.6002 215.851 45.0802 217.771 42.5602C218.611 41.4802 219.691 40.8802 220.771 40.8802C221.731 40.8802 222.451 41.2402 223.171 41.9602C223.411 42.2002 223.411 42.5602 223.171 42.9202C223.051 43.2802 222.811 43.5202 222.571 43.8802C215.851 52.6402 209.851 61.7602 202.891 70.4002C201.331 72.3202 199.891 74.2402 198.211 76.0402C195.811 78.5602 192.691 81.6802 188.851 81.5602C185.971 81.5602 184.171 80.3602 183.571 77.6002C182.971 74.9602 182.851 72.0802 182.971 69.2002C183.691 56.1202 187.771 43.4002 191.971 31.1602C192.691 28.7602 193.411 26.4802 194.131 24.2002C194.251 23.8402 194.251 23.4802 193.771 23.3602C193.651 23.3602 193.291 23.4802 193.171 23.7202C192.211 24.5602 191.371 25.4002 190.531 26.3602C182.131 35.2402 173.851 44.0002 165.211 52.5202C162.691 55.1602 158.131 59.3602 154.291 59.3602ZM154.411 53.8402C154.291 53.9602 154.291 54.2002 154.291 54.4402C154.291 55.0402 154.531 55.4002 154.891 55.4002C157.771 55.4002 179.971 31.0402 182.251 28.2802C182.731 27.8002 182.851 27.2002 182.731 26.6002C182.371 25.0402 181.651 24.4402 179.971 24.4402C167.251 24.5602 157.411 41.7202 154.651 52.4002C154.531 52.8802 154.411 53.3602 154.411 53.8402ZM215.841 66.0802C214.281 65.7202 213.921 65.2402 214.041 63.4402C214.161 62.2402 214.401 61.0402 214.641 59.9602C215.841 52.7602 217.161 45.6802 218.361 38.4802C219.441 30.4402 221.721 22.4002 223.281 14.3602L223.641 12.9202C223.881 12.3202 224.241 11.9602 224.841 11.9602C225.441 11.9602 226.041 12.0802 226.641 12.3202C227.841 12.8002 228.441 13.5202 228.081 14.9602L225.201 28.2802C224.241 32.0002 223.521 35.7202 222.921 39.4402C222.801 40.1602 223.041 40.5202 223.521 40.5202C223.641 40.5202 223.881 40.4002 224.121 40.2802C235.521 33.2002 245.121 22.8802 253.161 12.3202C254.241 10.8802 254.961 10.1602 255.681 10.1602C256.281 10.1602 257.001 10.6402 257.841 11.4802C258.681 12.3202 258.681 12.8002 257.601 14.2402C248.721 26.9602 239.121 34.8802 226.881 43.6402C223.401 46.2802 222.801 47.8402 224.601 51.0802C226.641 54.8002 229.521 56.9602 233.721 56.9602C244.161 56.9602 255.321 47.7202 262.881 41.4802C263.841 40.6402 264.801 40.2802 265.521 40.2802C266.361 40.2802 267.081 40.6402 267.921 41.6002C268.281 41.8402 268.281 42.3202 267.921 42.8002C267.561 43.2802 267.081 43.7602 266.601 44.1202C258.441 51.0802 247.281 59.6002 236.121 59.6002C231.681 59.6002 227.841 58.0402 224.481 55.2802L223.761 54.5602C222.921 53.9602 222.561 52.7602 221.361 52.5202C220.041 53.6002 220.401 54.9202 220.281 56.1202C220.041 58.8802 219.321 61.5202 219.321 64.1602C219.321 65.7202 218.121 66.2002 216.801 66.2002C216.441 66.2002 216.081 66.2002 215.841 66.0802ZM295.136 44.0002C295.016 44.3602 294.776 45.0802 295.256 45.2002H295.496C296.096 45.2002 296.336 44.6002 296.576 44.2402C302.936 35.0002 309.536 25.8802 318.176 18.6802C319.016 17.8402 319.856 17.6002 320.696 17.6002C321.416 17.6002 322.136 17.8402 322.736 18.2002C324.176 19.1602 325.376 20.2402 324.656 22.2802C319.976 35.2402 315.896 47.6002 314.456 61.4002C314.216 63.9202 314.216 66.4402 314.696 68.8402C314.816 69.2002 315.176 69.4402 315.536 69.4402C316.976 69.4402 322.256 63.6802 323.336 62.4802C326.456 58.7602 329.456 55.0402 332.576 51.3202C335.216 48.3202 337.736 45.3202 340.376 42.3202C341.456 41.1202 342.296 40.5202 343.256 40.5202C344.096 40.5202 344.816 40.8802 345.656 41.7202C346.136 42.0802 346.136 42.5602 345.656 43.1602C345.296 43.6402 344.816 44.1202 344.456 44.6002C341.096 48.2002 338.096 51.9202 335.096 55.6402C331.976 59.6002 328.736 63.3202 325.376 67.0402C322.976 69.4402 319.496 72.9202 315.776 72.9202C313.376 72.9202 311.096 71.7202 310.376 69.3202C309.656 66.8002 309.536 64.1602 309.656 61.5202C310.376 52.4002 312.536 43.2802 315.536 34.2802C316.496 31.2802 317.816 28.2802 318.416 25.2802C316.016 25.2802 306.656 38.0002 304.856 40.5202C301.976 44.7202 299.096 48.8002 295.976 52.8802C295.256 53.6002 294.536 53.8402 293.696 53.8402C291.416 53.8402 289.856 52.6402 289.856 50.2402C289.856 42.8002 291.656 35.0002 293.576 27.9202C294.776 23.8402 294.776 22.6402 294.176 23.0002C291.176 24.5602 280.616 42.3202 278.696 45.6802C277.016 48.3202 275.456 51.0802 273.776 53.7202C272.216 55.8802 270.416 58.5202 267.416 58.5202C265.616 58.5202 263.936 57.4402 263.576 55.6402C263.456 54.9202 263.336 54.0802 263.456 53.2402C264.776 41.2402 267.416 31.0402 273.296 20.4802C273.656 19.7602 274.256 19.4002 274.976 19.4002C275.696 19.4002 276.656 19.8802 277.256 20.2402C278.696 20.9602 278.576 21.2002 277.496 22.7602C272.456 30.0802 269.816 42.3202 268.616 50.9602C268.496 51.2002 268.616 51.5602 268.736 51.5602C268.856 51.6802 268.976 51.6802 268.976 51.6802C269.216 51.6802 269.456 51.4402 269.696 51.2002C270.536 49.8802 271.496 48.5602 272.216 47.1202C276.056 40.7602 279.776 34.4002 284.096 28.1602C286.976 23.8402 290.216 19.2802 293.936 15.6802C294.896 14.7202 295.736 14.3602 296.696 14.3602C297.176 14.3602 297.656 14.4802 298.256 14.7202C300.896 15.9202 301.136 17.0002 300.536 19.5202C299.696 23.2402 298.736 26.9602 297.776 30.6802C296.576 35.1202 295.736 39.5602 295.136 44.0002ZM296.216 3.44018C300.296 2.72018 304.256 1.88017 308.336 1.28017C310.736 0.920174 313.136 0.680176 315.536 0.680176C319.616 0.680176 323.576 0.920175 324.296 5.96017C324.536 7.28017 324.776 8.60018 324.416 10.0402C324.416 10.1602 324.176 10.4002 323.936 10.5202C323.816 10.5202 323.456 10.5202 323.336 10.4002C322.616 9.80018 322.256 8.84018 322.256 7.76018C322.256 5.96018 321.176 5.48018 319.736 5.36018C318.776 5.24018 317.696 5.12018 316.736 5.12018C315.536 5.12018 314.336 5.24018 313.136 5.36018C308.696 6.08018 304.376 6.80017 299.936 7.52017C296.216 8.12017 292.616 8.72017 288.776 8.96017C284.576 8.96017 280.376 7.28017 280.376 2.24017C280.376 1.88017 280.496 1.28018 281.096 1.16018C281.336 1.04018 281.816 1.28018 281.936 1.40018C282.416 1.88018 282.776 2.48018 283.016 3.08018C283.376 4.28018 284.336 4.52017 285.656 4.64017C289.256 4.64017 292.736 4.04018 296.216 3.44018ZM340.685 42.4402C337.325 37.2802 339.365 28.4002 343.805 22.8802C347.765 18.0802 352.925 15.3202 359.045 15.3202C369.245 15.3202 376.805 23.4802 375.845 33.5602C375.365 38.0002 374.045 42.3202 372.365 46.4002C372.005 47.1202 372.245 47.6002 372.725 47.6002C375.245 47.6002 383.285 42.3202 385.565 40.7602C386.765 39.9202 387.485 39.4402 388.205 39.4402C388.805 39.4402 389.525 39.6802 390.605 40.4002C391.565 41.0002 391.565 41.7202 390.365 42.5602C384.485 46.7602 378.005 50.2402 370.925 51.9202C369.965 52.0402 369.365 52.6402 368.885 53.3602C365.045 59.7202 358.925 68.0002 350.885 68.0002C348.125 68.0002 345.605 66.9202 343.565 64.8802C340.445 61.6402 339.245 57.4402 339.605 52.6402C339.725 50.4802 340.085 48.4402 340.805 46.2802C341.285 44.8402 341.405 43.6402 340.685 42.4402ZM345.005 30.3202C343.925 32.7202 343.445 35.1202 343.565 37.6402C343.565 37.8802 343.685 38.2402 343.805 38.1202C344.165 38.1202 344.525 38.0002 344.765 37.8802C345.125 37.5202 345.365 37.0402 345.605 36.5602C346.685 35.1202 349.565 31.0402 351.605 31.0402C352.445 31.0402 353.285 31.5202 354.245 32.3602C355.325 33.4402 353.525 34.0402 352.925 34.8802C352.685 35.4802 352.085 35.8402 351.725 36.3202C349.685 38.7202 348.245 41.2402 346.925 44.0002C346.565 44.8402 346.565 45.5602 347.285 46.1602C350.285 49.0402 355.325 50.3602 359.405 50.3602C360.965 50.3602 362.525 50.2402 364.205 49.8802C367.205 49.2802 370.325 37.6402 370.805 35.0002C371.645 30.6802 371.525 26.6002 369.605 23.0002C367.805 19.6402 365.285 18.0802 361.805 18.0802C354.005 18.0802 348.005 23.4802 345.005 30.3202ZM345.125 49.2802C344.045 53.2402 344.285 56.9602 345.485 60.4402C346.085 62.1202 348.125 65.7202 350.165 65.7202C354.725 65.7202 361.325 57.0802 363.005 53.3602C362.525 53.2402 362.165 53.1202 361.685 53.1202C356.285 52.8802 351.365 51.5602 347.045 48.9202C346.925 48.8002 346.685 48.6802 346.445 48.5602C345.845 48.5602 345.245 48.5602 345.125 49.2802ZM443.637 39.8002C444.477 39.8002 445.317 40.1602 446.037 40.5202C446.997 41.1202 447.477 41.8402 447.237 42.3202C446.637 43.0402 445.917 42.8002 445.197 42.9202C443.397 43.4002 441.597 43.6402 439.917 44.3602C429.357 48.3202 418.077 53.6002 409.917 61.6402C408.717 62.8402 407.277 64.0402 405.957 65.1202C404.997 65.8402 404.157 66.0802 403.317 66.0802C402.477 66.0802 401.757 65.8402 401.037 65.3602C400.437 65.0002 400.317 64.1602 400.917 63.5602C401.877 62.7202 402.717 61.7602 403.797 61.0402C412.557 54.3202 420.477 40.8802 422.037 29.7202C422.277 28.6402 422.277 27.4402 422.037 26.3602C421.797 25.6402 421.437 25.2802 420.597 25.2802C417.477 25.2802 412.557 29.9602 410.517 32.2402C397.557 46.5202 390.597 65.6002 386.037 84.0802C385.437 86.3602 385.077 88.7602 384.957 91.0402C384.957 92.7202 383.757 93.2002 382.317 93.2002C381.957 93.2002 381.477 93.2002 381.237 93.0802C380.277 92.9602 379.677 92.3602 379.677 91.2802C380.037 84.4402 380.157 77.6002 381.117 70.6402C384.117 49.8802 389.277 29.6002 395.517 9.44018C395.877 8.36018 396.477 7.88017 397.317 7.88017C397.437 7.88017 397.677 7.88018 397.917 8.00018C398.277 8.12018 398.637 8.24018 398.877 8.36018C400.317 9.08018 400.437 9.32018 400.077 11.0002C399.237 14.1202 398.397 17.3602 397.437 20.4802C393.957 32.2402 391.197 44.1202 388.677 56.1202C388.437 56.8402 388.077 57.6802 388.557 58.5202C389.517 57.9202 389.757 56.9602 390.117 56.1202C394.677 45.8002 407.277 22.5202 419.037 22.5202C423.237 22.5202 426.237 25.4002 426.357 29.8402C426.357 33.8002 425.157 37.7602 423.717 41.7202C422.997 43.2802 422.157 44.8402 421.437 46.4002C421.197 47.0002 420.717 47.4802 421.077 48.0802H421.437C422.037 48.0802 422.517 47.6002 423.117 47.3602C427.917 44.9602 438.237 39.8002 443.637 39.8002Z" fill="black"/>
<path d="M336.49 217.156C336.49 194.146 328.951 173.847 316.155 154.841C307.204 141.546 296.843 129.085 284.467 118.85C279.447 114.697 273.946 108.378 268 106" stroke="black" stroke-width="4" stroke-linecap="round"/>
<path d="M338.178 216.838C339.245 209.641 343.982 203.311 346.734 196.706" stroke="black" stroke-width="4" stroke-linecap="round"/>
<path d="M337.675 219.354C336.867 214.911 330.88 209.595 327.861 206.576C324.582 203.297 320.186 201.362 317.04 198.216" stroke="black" stroke-width="4" stroke-linecap="round"/>
</svg>
