<svg width="788" height="240" viewBox="0 0 788 240" fill="none" xmlns="http://www.w3.org/2000/svg">
<path d="M784.15 2C763.557 32.5071 730.419 54.2311 696 66.379" stroke="black" stroke-width="4" stroke-linecap="round"/>
<path d="M785.24 3.34814C779.969 11.548 777.871 21.1335 774.168 30.0227" stroke="black" stroke-width="4" stroke-linecap="round"/>
<path d="M784.737 3.34814C779.267 4.01118 773.938 7.50576 768.687 9.16398C763.919 10.6697 758.972 11.7023 754.036 12.4074" stroke="black" stroke-width="4" stroke-linecap="round"/>
<path d="M128.63 169.6C129.11 168.88 129.83 168.52 130.55 168.52C131.39 168.52 132.23 168.88 133.07 169.24C133.79 169.6 133.91 170.2 133.31 170.92C131.27 173.8 129.11 176.68 127.07 179.56C122.51 185.92 118.43 191.44 113.15 197.2C111.47 198.88 109.07 199.96 106.67 199.96C104.27 199.96 102.35 198.64 101.63 196.24C100.67 193.24 100.55 190.12 100.55 186.88C100.55 179.32 102.23 170.68 104.51 163.48C104.99 161.92 105.23 160.36 105.47 158.92C105.59 158.56 105.47 158.44 105.11 158.44C104.51 158.56 103.79 159.4 103.43 159.88C101.15 162.64 98.7501 165.52 96.4701 168.4C93.4701 172.24 90.4701 175.96 87.4701 179.68C85.1901 182.44 81.8301 186.16 77.9901 186.16C73.7901 186.16 72.9501 183.64 72.4701 179.92C72.1101 177.16 72.1101 174.28 72.4701 171.28C72.9501 167.8 76.5501 146.68 79.7901 145.96C80.7501 145.96 83.0301 146.32 83.1501 147.52C83.2701 147.88 83.1501 148.48 83.0301 148.84C80.7501 154.48 79.6701 160.24 78.3501 166C77.5101 170.2 77.0301 174.4 77.3901 178.48C77.3901 179.2 77.6301 182.56 78.4701 182.56C79.1901 182.56 81.3501 180.04 81.8301 179.56C85.4301 175.36 88.7901 170.8 92.1501 166.36C95.6301 161.8 99.2301 157.36 103.31 153.28C104.15 152.44 105.11 151.48 106.07 150.76C106.79 150.16 107.51 149.92 108.23 149.92C108.59 149.92 109.07 149.92 109.43 150.04C112.07 151 112.55 151.72 111.83 154.6C110.63 159.4 109.31 164.2 108.11 169C106.19 176.56 105.35 184.12 105.83 191.56C105.95 192.52 106.31 196.84 107.63 196.84C108.23 196.84 110.63 194.08 111.11 193.48C113.75 190.12 116.27 186.64 118.91 183.16C121.43 179.68 123.83 176.2 126.35 172.72C127.07 171.64 127.91 170.68 128.63 169.6ZM145.278 235.36C145.158 233.68 145.398 232.12 145.878 230.44C149.958 217 165.918 200.32 175.998 191.44C177.918 190 179.238 188.8 179.958 186.52C183.558 176.44 187.158 166.36 190.638 156.16C190.998 155.44 191.238 154.6 191.118 153.76H190.758C189.798 153.76 189.198 154.6 188.478 155.2C183.918 159.16 179.238 163.24 174.678 167.32C171.078 170.44 167.478 173.8 163.638 176.68C162.198 177.76 160.638 178.72 159.198 179.68C158.118 180.28 157.158 180.52 156.078 180.52C155.718 180.52 155.358 180.52 154.998 180.4C152.358 180.04 151.158 178.48 151.758 175.72C154.398 164.56 168.918 148.12 181.038 148.12C182.718 148.12 184.398 148.48 185.958 149.32C186.318 149.56 186.798 149.68 187.158 149.68C187.758 149.68 188.358 149.56 189.078 149.08C190.278 148.48 191.358 148.12 192.318 148.12C194.838 148.12 196.518 150.04 196.158 153.16C195.918 155.92 194.838 158.68 193.998 161.44C192.078 167.32 189.918 173.08 187.998 178.84C187.638 179.68 187.038 180.52 187.398 181.48C188.598 181.48 189.438 180.52 190.278 179.92C194.958 176.44 199.878 173.2 204.918 170.32C205.398 170.08 205.878 169.84 206.238 169.48C207.198 168.88 208.038 168.52 208.878 168.52C209.718 168.52 210.558 169 211.398 169.72C211.638 169.96 212.118 170.2 211.998 170.8C211.398 171.76 210.198 172 209.238 172.6C201.078 177.16 193.518 182.8 186.078 188.68C184.278 190 183.198 191.68 182.358 193.72C180.198 199.72 177.678 205.6 174.918 211.36C171.198 219.16 159.558 239.2 149.958 239.2C147.438 239.2 145.398 238.12 145.278 235.36ZM150.798 232.24C150.558 233.44 149.598 235.24 150.918 235.72H151.278C152.238 235.72 153.198 234.52 154.038 233.8C163.518 225.04 169.878 211.84 174.558 200.08C174.558 199.84 174.438 199.72 174.438 199.48C173.478 199.48 172.998 200.32 172.398 201.04C165.798 207.64 152.118 222.76 150.798 232.24ZM157.758 173.44C157.398 174.16 156.918 174.88 157.398 175.48C157.518 175.48 157.518 175.6 157.638 175.6C158.358 175.6 161.958 172.48 162.558 172C169.638 165.76 176.718 159.52 183.678 153.28C184.038 153.04 184.278 152.68 184.518 152.44C184.878 151.96 184.638 151.12 184.158 151C182.958 151 182.238 151 181.038 151.24C169.998 154.6 162.558 163.36 157.758 173.44ZM263.748 169.6C264.228 168.88 264.948 168.52 265.668 168.52C266.508 168.52 267.348 168.88 268.188 169.24C268.908 169.6 269.028 170.2 268.428 170.92C266.388 173.8 264.228 176.68 262.188 179.56C257.628 185.92 253.548 191.44 248.268 197.2C246.588 198.88 244.188 199.96 241.788 199.96C239.388 199.96 237.468 198.64 236.748 196.24C235.788 193.24 235.668 190.12 235.668 186.88C235.668 179.32 237.348 170.68 239.628 163.48C240.108 161.92 240.348 160.36 240.588 158.92C240.708 158.56 240.588 158.44 240.228 158.44C239.628 158.56 238.908 159.4 238.548 159.88C236.268 162.64 233.868 165.52 231.588 168.4C228.588 172.24 225.588 175.96 222.588 179.68C220.308 182.44 216.948 186.16 213.107 186.16C208.908 186.16 208.068 183.64 207.588 179.92C207.228 177.16 207.228 174.28 207.588 171.28C208.068 167.8 211.668 146.68 214.908 145.96C215.868 145.96 218.148 146.32 218.268 147.52C218.388 147.88 218.268 148.48 218.148 148.84C215.868 154.48 214.788 160.24 213.468 166C212.628 170.2 212.148 174.4 212.508 178.48C212.508 179.2 212.748 182.56 213.588 182.56C214.308 182.56 216.468 180.04 216.948 179.56C220.548 175.36 223.908 170.8 227.268 166.36C230.748 161.8 234.348 157.36 238.428 153.28C239.268 152.44 240.228 151.48 241.188 150.76C241.908 150.16 242.628 149.92 243.348 149.92C243.708 149.92 244.188 149.92 244.548 150.04C247.188 151 247.668 151.72 246.948 154.6C245.748 159.4 244.428 164.2 243.228 169C241.308 176.56 240.467 184.12 240.948 191.56C241.068 192.52 241.428 196.84 242.748 196.84C243.348 196.84 245.748 194.08 246.228 193.48C248.868 190.12 251.388 186.64 254.028 183.16C256.548 179.68 258.948 176.2 261.468 172.72C262.188 171.64 263.028 170.68 263.748 169.6ZM261.306 236.2C257.826 235.72 255.906 234.4 257.346 229.96C261.546 216.64 278.946 199.48 289.026 190.72C290.946 189.04 292.026 187.36 292.626 185.08C293.466 182.32 293.946 179.56 293.706 176.8C293.586 175.6 293.226 175.12 292.266 175.12C289.146 175.12 283.986 177.76 281.466 179.44C280.626 179.92 279.786 180.64 278.946 181.12C278.586 181.36 278.106 181.48 277.626 181.48C276.186 181.48 274.746 180.64 274.626 179.44C274.506 179.08 274.746 178.72 274.986 178.48C275.706 177.52 276.426 176.68 277.146 175.84C281.706 170.8 294.426 155.8 295.866 149.44C296.106 147.88 295.986 147.28 294.906 147.28C294.666 147.28 294.186 147.28 293.586 147.52C285.426 149.8 274.986 160.96 270.426 167.68C269.706 168.88 268.866 169.96 268.866 171.4C268.746 172.48 268.266 172.84 267.306 172.84C266.466 172.84 265.746 172.6 265.146 172.24C263.946 171.64 263.586 170.8 264.186 169.36C267.426 160.96 284.346 143.8 292.866 143.8C295.986 143.8 298.626 145.48 299.706 148.24C300.186 149.32 300.186 150.64 299.826 151.96C299.106 154 298.266 156.04 297.066 157.96C294.666 161.8 291.906 165.52 289.146 169.12C288.546 169.84 287.586 170.56 287.586 171.64C287.826 171.76 288.066 171.76 288.306 171.76C296.586 171.76 297.306 175.12 297.906 182.44C298.986 182.56 299.586 181.72 300.306 181.12C305.466 176.92 310.986 173.44 316.506 169.84C316.866 169.6 317.226 169.36 317.466 169.12C317.946 168.88 318.306 168.76 318.666 168.76C319.626 168.76 320.586 169.84 321.186 170.44C321.906 171.28 321.786 171.76 320.826 172.48C312.906 177.28 305.346 182.92 298.146 188.8C296.466 190.24 295.266 191.8 294.666 193.84C291.306 205.12 274.626 236.2 261.306 236.2ZM285.666 200.2C278.946 206.68 262.386 223.84 262.026 232.24C262.026 232.6 262.386 232.96 262.626 232.96C262.746 232.96 262.866 232.84 262.986 232.84C272.466 226.96 281.466 211.6 286.266 201.76C286.626 201.04 287.226 200.32 286.866 199.48C286.266 199.36 286.026 199.84 285.666 200.2ZM318.818 187.96C315.818 187.96 313.898 186.04 314.018 182.92C314.018 180.4 314.618 178 315.578 175.6C319.538 164.92 329.258 150.28 341.978 150.28C344.378 150.28 346.778 150.88 348.698 152.08C349.418 152.56 349.778 152.8 350.138 152.8C350.618 152.8 351.098 152.32 352.058 151.48C353.978 149.44 355.898 147.28 358.058 145.48C359.378 144.4 360.338 143.8 361.298 143.8C362.018 143.8 362.738 144.16 363.698 144.64C365.138 145.48 365.618 146.68 365.018 148.36C364.298 151 363.458 153.76 362.618 156.4C360.938 161.8 359.138 167.2 357.458 172.72C355.418 179.56 353.738 186.4 352.898 193.36C352.538 196.6 352.418 199.84 352.658 203.08C352.658 204.04 352.898 205 353.138 206.08C353.258 206.8 353.618 207.16 354.098 207.04C355.898 206.56 361.298 199.72 362.498 198.16C367.178 191.68 371.858 185.2 376.658 178.84C378.458 176.2 380.378 173.68 382.298 171.16C383.138 170.08 384.218 169.48 385.298 169.48C386.258 169.48 386.978 169.84 387.698 170.56C387.938 170.8 387.938 171.16 387.698 171.52C387.578 171.88 387.338 172.12 387.098 172.48C380.378 181.24 374.378 190.36 367.418 199C365.858 200.92 364.418 202.84 362.738 204.64C360.338 207.16 357.218 210.28 353.378 210.16C350.498 210.16 348.698 208.96 348.098 206.2C347.498 203.56 347.378 200.68 347.498 197.8C348.218 184.72 352.298 172 356.498 159.76C357.218 157.36 357.938 155.08 358.658 152.8C358.778 152.44 358.778 152.08 358.298 151.96C358.178 151.96 357.818 152.08 357.698 152.32C356.738 153.16 355.898 154 355.058 154.96C346.658 163.84 338.378 172.6 329.738 181.12C327.218 183.76 322.658 187.96 318.818 187.96ZM318.938 182.44C318.818 182.56 318.818 182.8 318.818 183.04C318.818 183.64 319.058 184 319.418 184C322.298 184 344.498 159.64 346.778 156.88C347.258 156.4 347.378 155.8 347.258 155.2C346.898 153.64 346.178 153.04 344.498 153.04C331.778 153.16 321.938 170.32 319.178 181C319.058 181.48 318.938 181.96 318.938 182.44ZM383.489 180.4C383.129 177.64 383.129 174.76 383.489 171.76C384.329 165.88 386.609 153.76 389.249 148.48C389.609 147.64 389.729 146.68 390.809 146.44C391.769 146.44 393.929 146.92 394.169 148C394.289 148.36 394.169 148.96 394.049 149.32C391.769 154.96 390.689 160.72 389.369 166.48C388.529 170.68 388.049 174.88 388.409 178.96C388.409 179.68 388.649 183.04 389.489 183.04C390.209 183.04 392.369 180.64 392.849 180.04C396.449 175.84 399.809 171.28 403.169 166.96C406.649 162.4 410.249 157.84 414.329 153.76C415.169 152.92 416.129 151.96 417.089 151.24C417.809 150.64 418.529 150.4 419.249 150.4C419.609 150.4 420.089 150.52 420.449 150.64C423.089 151.48 423.569 152.2 422.849 155.2C421.649 160 420.329 164.68 419.129 169.48C417.209 177.16 416.369 184.72 416.969 192.16C416.969 193 417.329 197.32 418.649 197.32C419.249 197.32 421.649 194.56 422.129 194.08C424.769 190.6 427.289 187.24 429.929 183.76C432.449 180.28 434.849 176.68 437.369 173.2C438.089 172.12 438.929 171.16 439.649 170.2C440.129 169.36 440.849 169 441.569 169C442.409 169 443.249 169.36 444.089 169.72C444.809 170.08 444.929 170.68 444.329 171.4C442.289 174.28 440.129 177.16 438.089 180.04C433.529 186.4 429.449 191.92 424.169 197.68C422.489 199.36 420.089 200.44 417.689 200.44C415.289 200.44 413.369 199.24 412.649 196.72C411.689 193.84 411.569 190.6 411.569 187.36C411.569 179.92 413.249 171.16 415.529 163.96C416.009 162.4 416.249 160.96 416.489 159.4C416.609 159.04 416.489 158.92 416.129 158.92C415.649 158.92 414.809 160 414.449 160.36C412.169 163.24 409.769 166 407.489 168.88C404.489 172.72 401.489 176.44 398.489 180.16C396.209 182.92 392.849 186.76 389.009 186.76C384.809 186.76 383.969 184.12 383.489 180.4ZM401.009 136.84C400.649 134.68 401.489 132.76 403.409 131.32C404.609 130.48 405.689 130 406.889 130C407.489 130 408.209 130.12 408.809 130.48C409.889 130.96 410.969 131.56 411.929 132.16C413.009 132.76 413.969 133.48 415.049 134.08C415.769 134.56 416.369 134.68 417.209 134.68C418.289 134.56 418.649 133.6 419.249 133C419.489 132.88 419.849 132.76 420.209 132.76C420.209 132.76 420.329 133.12 420.329 133.36C420.209 135.76 418.049 139.72 415.289 139.72C413.849 139.72 412.769 139.12 411.689 138.52C410.369 137.68 409.049 136.72 407.729 135.88C406.889 135.4 406.049 135.16 405.209 135.16C404.369 135.16 403.649 135.4 402.689 136C402.209 136.24 401.969 136.96 401.009 136.84ZM438.513 195.4C437.193 195.28 436.833 194.68 436.953 193.36C436.953 192.52 437.193 191.56 437.313 190.6C439.473 176.92 441.513 163.24 443.673 149.56C443.913 148.48 444.033 147.4 444.273 146.44C444.513 145.24 444.993 144.64 445.833 144.64C446.673 144.64 447.513 145.12 448.353 145.6C448.833 145.84 449.073 146.32 448.953 146.92C448.953 147.52 448.833 148.12 448.713 148.72C447.153 159.16 445.953 169.72 443.913 180.28C443.913 180.64 443.793 181 443.793 181.24C443.793 181.48 443.913 181.72 444.033 181.84C444.153 181.84 444.153 181.96 444.273 181.96C444.513 181.96 444.753 181.72 444.993 181.48C445.233 181.24 445.473 180.88 445.713 180.64C455.193 169 464.673 157.48 473.433 145.24C473.913 144.4 474.513 143.56 475.113 142.72C475.593 142.24 475.953 142 476.433 142C476.673 142 476.913 142.12 477.033 142.12C477.753 142.48 478.353 142.96 478.953 143.32C479.673 143.8 479.793 144.64 479.433 145.48C475.833 155.92 472.833 166.6 471.153 177.64C470.313 182.92 469.953 188.08 470.433 193.24C470.553 194.2 470.673 195.16 470.913 196.12C471.033 196.6 471.393 196.84 471.753 196.84C474.153 196.84 486.873 180.88 488.913 178.24C491.073 175.48 493.233 172.84 495.393 170.2C496.233 169.12 496.833 168.64 497.673 168.64C498.633 168.64 500.553 169.36 500.793 170.32C500.673 170.56 500.673 170.8 500.553 171.04C494.313 178.72 488.313 186.64 481.353 193.84C479.793 195.4 478.353 196.96 476.553 198.28C474.993 199.48 473.313 200.08 471.753 200.08C466.233 200.08 465.633 195.64 465.273 191.44C464.913 185.44 465.633 179.44 466.833 173.32C467.673 169.36 468.393 165.4 469.593 161.44C469.833 160.6 469.953 159.76 470.073 159.04C469.953 158.92 469.833 158.92 469.713 158.92C469.233 158.92 468.873 159.4 468.513 159.88C463.113 166.48 457.713 172.96 452.433 179.56C448.833 184 445.353 188.32 442.833 193.24C441.873 194.8 440.793 195.52 439.353 195.52C439.113 195.52 438.753 195.52 438.513 195.4ZM495.246 184.12C494.766 180.64 495.006 176.92 495.846 172.84C496.566 171.88 495.966 170.56 496.566 169.36C498.966 164.68 501.126 160 504.366 155.68C507.726 151.36 513.966 144.76 519.726 144.76C524.046 144.76 527.046 148.84 525.246 153.28C521.766 161.8 511.446 168.88 503.046 171.52C501.246 172 500.646 172.96 500.286 174.52C499.446 178.12 499.206 181.72 499.686 185.2C500.046 188.2 500.886 189.4 502.806 189.4C508.326 189.4 516.846 181.96 520.566 178.36C523.446 175.6 526.206 172.84 529.086 170.08C530.406 168.88 531.246 168.4 532.086 168.4C532.806 168.4 533.406 168.76 534.366 169.36C535.206 169.96 535.206 170.44 534.366 171.28C530.646 175 526.926 178.6 523.086 182.2C518.406 186.52 511.446 192.16 504.846 192.16C499.926 192.16 496.086 189.16 495.246 184.12ZM503.766 165.52C503.646 165.88 503.406 166.36 503.766 166.84C503.886 166.84 504.126 166.96 504.366 166.84C510.366 163.84 519.246 157.24 521.286 150.4C521.526 149.68 521.886 148.96 521.406 148.36C521.286 148.24 521.046 148.12 520.806 148.12C520.446 148.12 519.846 148.48 519.486 148.6C513.006 151 506.766 159.76 503.766 165.52ZM587.305 168.4C588.145 168.4 588.985 168.76 589.705 169.12C590.665 169.72 591.145 170.44 590.905 170.92C590.305 171.64 589.585 171.4 588.865 171.52C587.065 172 585.265 172.24 583.585 172.96C573.025 176.92 561.745 182.2 553.585 190.24C552.385 191.44 550.945 192.64 549.625 193.72C548.665 194.44 547.825 194.68 546.985 194.68C546.145 194.68 545.425 194.44 544.705 193.96C544.105 193.6 543.985 192.76 544.585 192.16C545.545 191.32 546.385 190.36 547.465 189.64C556.225 182.92 564.145 169.48 565.705 158.32C565.945 157.24 565.945 156.04 565.705 154.96C565.465 154.24 565.105 153.88 564.265 153.88C561.145 153.88 556.225 158.56 554.185 160.84C541.225 175.12 534.265 194.2 529.705 212.68C529.105 214.96 528.745 217.36 528.625 219.64C528.625 221.32 527.425 221.8 525.985 221.8C525.625 221.8 525.145 221.8 524.905 221.68C523.945 221.56 523.345 220.96 523.345 219.88C523.705 213.04 523.825 206.2 524.785 199.24C527.785 178.48 532.945 158.2 539.185 138.04C539.545 136.96 540.145 136.48 540.985 136.48C541.105 136.48 541.345 136.48 541.585 136.6C541.945 136.72 542.305 136.84 542.545 136.96C543.985 137.68 544.105 137.92 543.745 139.6C542.905 142.72 542.065 145.96 541.105 149.08C537.625 160.84 534.865 172.72 532.345 184.72C532.105 185.44 531.745 186.28 532.225 187.12C533.185 186.52 533.425 185.56 533.785 184.72C538.345 174.4 550.945 151.12 562.705 151.12C566.905 151.12 569.905 154 570.025 158.44C570.025 162.4 568.825 166.36 567.385 170.32C566.665 171.88 565.825 173.44 565.105 175C564.865 175.6 564.385 176.08 564.745 176.68H565.105C565.705 176.68 566.185 176.2 566.785 175.96C571.585 173.56 581.905 168.4 587.305 168.4Z" fill="black"/>
<path d="M57.322 60.0002C57.802 59.2802 58.522 58.9202 59.242 58.9202C60.082 58.9202 60.922 59.2802 61.762 59.6402C62.482 60.0002 62.602 60.6002 62.002 61.3202C59.962 64.2002 57.802 67.0802 55.762 69.9602C51.202 76.3202 47.122 81.8402 41.842 87.6002C40.162 89.2802 37.762 90.3602 35.362 90.3602C32.962 90.3602 31.042 89.0402 30.322 86.6402C29.362 83.6402 29.242 80.5202 29.242 77.2802C29.242 69.7202 30.922 61.0802 33.202 53.8802C33.682 52.3202 33.922 50.7602 34.162 49.3202C34.282 48.9602 34.162 48.8402 33.802 48.8402C33.202 48.9602 32.482 49.8002 32.122 50.2802C29.842 53.0402 27.442 55.9202 25.162 58.8002C22.162 62.6402 19.1617 66.3602 16.1617 70.0802C13.8817 72.8402 10.5217 76.5602 6.68173 76.5602C2.48173 76.5602 1.64172 74.0402 1.16172 70.3202C0.801724 67.5602 0.801724 64.6802 1.16172 61.6802C1.64172 58.2002 5.24172 37.0802 8.48172 36.3602C9.44172 36.3602 11.7217 36.7202 11.8417 37.9202C11.9617 38.2802 11.8417 38.8802 11.7217 39.2402C9.44173 44.8802 8.36173 50.6402 7.04173 56.4002C6.20173 60.6002 5.72173 64.8002 6.08173 68.8802C6.08173 69.6002 6.32172 72.9602 7.16172 72.9602C7.88172 72.9602 10.0417 70.4402 10.5217 69.9602C14.1217 65.7602 17.4817 61.2002 20.8417 56.7602C24.322 52.2002 27.922 47.7602 32.002 43.6802C32.842 42.8402 33.802 41.8802 34.762 41.1602C35.482 40.5602 36.202 40.3202 36.922 40.3202C37.282 40.3202 37.762 40.3202 38.122 40.4402C40.762 41.4002 41.242 42.1202 40.522 45.0002C39.322 49.8002 38.002 54.6002 36.802 59.4002C34.882 66.9602 34.042 74.5202 34.522 81.9602C34.642 82.9202 35.002 87.2402 36.322 87.2402C36.922 87.2402 39.322 84.4802 39.802 83.8802C42.442 80.5202 44.962 77.0402 47.602 73.5602C50.122 70.0802 52.522 66.6002 55.042 63.1202C55.762 62.0402 56.602 61.0802 57.322 60.0002ZM115.36 59.8802C116.08 60.2402 116.32 60.7202 115.84 61.5602C115.84 61.6802 115.72 61.8002 115.72 61.9202C111.64 68.5202 107.8 75.3602 103 81.6002C101.44 83.6402 99.76 85.4402 97.96 87.3602C96.64 88.5602 94.84 89.2802 93.16 89.2802C90.88 89.2802 88.72 87.9602 88.24 85.3202C87.88 83.0402 87.88 80.6402 88 78.2402C88.24 71.5202 89.56 64.9202 91 58.2002C92.08 52.9202 93.52 47.7602 94.72 42.4802C95.08 41.0402 95.56 39.4802 95.56 38.0402C94.48 38.0402 94.12 38.7602 93.64 39.2402C86.2 48.2402 79.6 57.4802 73 67.0802C71.92 68.6402 70.84 70.2002 69.76 71.6402C68.08 73.9202 65.92 76.4402 62.92 76.4402C60.76 76.4402 58.96 75.0002 58.12 73.0802C56.8 69.7202 56.92 66.2402 58 62.5202C58.36 61.5602 59.08 61.0802 59.92 61.0802C61 61.0802 61.48 61.2002 62.44 61.8002C63.04 62.0402 63.16 62.5202 63.04 63.1202C62.56 64.9202 62.2 66.6002 62.08 68.4002C61.96 69.6002 62.08 70.6802 62.44 71.7602C62.56 72.0002 62.8 72.1202 63.04 72.1202C63.64 72.1202 64.96 70.4402 65.32 69.9602C68.56 65.0402 91 31.3202 96.52 31.3202C97.12 31.3202 97.6 31.5602 98.2 31.8002C100.12 32.6402 101.2 34.0802 100.72 36.6002C100.24 39.0002 99.76 41.5202 99.16 43.9202C97.36 51.9602 95.32 60.0002 94.12 68.1602C93.4 72.6002 92.8 77.0402 92.8 81.3602C92.92 82.4402 92.92 83.4002 93.04 84.4802C93.16 84.8402 93.4 85.0802 93.64 85.0802C95.68 85.0802 105.16 70.0802 106.6 67.6802C108.16 65.1602 109.6 62.7602 111.16 60.2402C111.64 59.4002 112.24 59.0402 112.96 59.0402C113.8 59.0402 114.64 59.5202 115.36 59.8802ZM169.501 59.8802C170.221 60.2402 170.461 60.7202 169.981 61.5602C169.981 61.6802 169.861 61.8002 169.861 61.9202C165.781 68.5202 161.941 75.3602 157.141 81.6002C155.581 83.6402 153.901 85.4402 152.101 87.3602C150.781 88.5602 148.981 89.2802 147.301 89.2802C145.021 89.2802 142.861 87.9602 142.381 85.3202C142.021 83.0402 142.021 80.6402 142.141 78.2402C142.381 71.5202 143.701 64.9202 145.141 58.2002C146.221 52.9202 147.661 47.7602 148.861 42.4802C149.221 41.0402 149.701 39.4802 149.701 38.0402C148.621 38.0402 148.261 38.7602 147.781 39.2402C140.341 48.2402 133.741 57.4802 127.141 67.0802C126.061 68.6402 124.981 70.2002 123.901 71.6402C122.221 73.9202 120.061 76.4402 117.061 76.4402C114.901 76.4402 113.101 75.0002 112.261 73.0802C110.941 69.7202 111.061 66.2402 112.141 62.5202C112.501 61.5602 113.221 61.0802 114.061 61.0802C115.141 61.0802 115.621 61.2002 116.581 61.8002C117.181 62.0402 117.301 62.5202 117.181 63.1202C116.701 64.9202 116.341 66.6002 116.221 68.4002C116.101 69.6002 116.221 70.6802 116.581 71.7602C116.701 72.0002 116.941 72.1202 117.181 72.1202C117.781 72.1202 119.101 70.4402 119.461 69.9602C122.701 65.0402 145.141 31.3202 150.661 31.3202C151.261 31.3202 151.741 31.5602 152.341 31.8002C154.261 32.6402 155.341 34.0802 154.861 36.6002C154.381 39.0002 153.901 41.5202 153.301 43.9202C151.501 51.9602 149.461 60.0002 148.261 68.1602C147.541 72.6002 146.941 77.0402 146.941 81.3602C147.061 82.4402 147.061 83.4002 147.181 84.4802C147.301 84.8402 147.541 85.0802 147.781 85.0802C149.821 85.0802 159.301 70.0802 160.741 67.6802C162.301 65.1602 163.741 62.7602 165.301 60.2402C165.781 59.4002 166.381 59.0402 167.101 59.0402C167.941 59.0402 168.781 59.5202 169.501 59.8802ZM160.042 96.2402C160.042 96.0002 160.162 95.5202 160.162 95.1602C163.042 79.8002 165.802 64.3202 168.562 48.8402C169.042 46.6802 169.522 44.4002 170.002 42.2402C170.242 41.2802 170.842 40.8002 171.562 40.8002C171.802 40.8002 172.042 40.9202 172.282 40.9202C172.642 41.0402 173.002 41.2802 173.362 41.5202C174.322 42.0002 174.562 42.8402 174.322 44.0402C172.162 55.9202 170.002 67.6802 167.962 79.5602C167.842 80.4002 167.722 81.1202 167.602 81.9602C167.602 82.3202 167.602 82.6802 167.842 82.8002C167.962 82.9202 167.962 82.9202 168.082 82.9202C168.442 82.9202 168.682 82.4402 169.042 82.2002C169.282 81.8402 169.642 81.3602 169.882 81.0002C175.882 73.3202 181.882 65.5202 187.882 57.8402C189.202 56.2802 190.282 54.4802 191.482 52.9202C192.682 51.1202 194.002 49.4402 195.202 47.6402C195.682 47.0402 196.402 46.4402 197.242 46.4402C198.682 46.4402 200.602 48.0002 200.362 49.4402C200.362 49.6802 200.242 49.8002 200.122 50.0402C199.882 50.5202 200.002 51.0002 200.122 51.3602C202.762 48.3602 206.602 45.7202 210.682 45.7202C216.802 45.7202 221.002 50.7602 221.242 56.6402C221.362 60.6002 220.042 64.3202 218.602 68.1602C218.122 69.4802 217.042 70.8002 217.282 72.2402C220.282 72.1202 228.442 65.0402 230.602 63.1202C232.042 61.8002 233.482 60.4802 234.922 59.2802C235.642 58.6802 236.122 58.3202 236.602 58.3202C237.562 58.3202 238.402 59.2802 238.882 60.0002C239.602 60.8402 239.482 61.3202 238.402 62.2802C235.162 65.2802 232.042 68.2802 228.562 70.9202C224.602 73.9202 220.282 76.3202 215.602 77.7602C213.922 78.2402 212.842 79.2002 212.002 80.6402C208.282 86.6402 201.202 94.9202 193.642 94.9202C190.402 94.9202 187.642 93.3602 185.962 90.2402C183.682 86.0402 182.842 81.4802 183.322 76.4402C183.442 75.1202 183.682 73.6802 183.802 72.2402C183.802 72.1202 183.682 71.8802 183.442 71.7602C183.322 71.7602 183.082 71.8802 182.842 71.8802C180.922 73.2002 166.882 93.6002 164.842 96.8402C164.362 97.6802 163.762 98.1602 162.922 98.1602C161.722 98.1602 160.282 97.5602 160.042 96.2402ZM200.362 59.4002C198.562 64.2002 199.042 68.6402 201.082 72.7202C202.282 74.8802 204.202 75.7202 206.602 75.7202C208.042 75.7202 209.602 75.6002 210.322 74.1602C213.682 68.2802 216.322 62.5202 217.162 55.8002C217.282 54.3602 217.162 52.8002 216.682 51.4802C216.202 49.9202 215.242 49.2002 213.682 49.2002C207.922 49.2002 202.402 54.2402 200.362 59.4002ZM188.242 75.6002C187.642 80.5202 188.242 85.2002 190.042 89.4002C190.402 90.1202 190.762 90.8402 191.122 91.4402C191.602 92.1602 192.082 92.4002 192.682 92.4002C196.882 92.4002 203.962 84.0002 206.122 80.7602C206.602 80.1602 207.202 79.5602 206.842 78.7202C204.802 78.1202 202.642 77.5202 200.962 76.0802C195.802 71.7602 194.242 65.7602 195.802 58.5602C196.162 56.8802 196.762 55.3202 198.082 54.0002C197.362 54.0002 196.882 54.2402 196.402 54.7202C191.602 60.0002 189.202 68.7602 188.242 75.6002ZM231.697 84.7202C231.337 82.8002 231.217 80.7602 231.457 78.6002C233.017 67.2002 236.377 57.2402 243.217 47.7602C246.577 42.9602 253.897 34.8002 260.257 34.8002C263.017 34.8002 268.057 37.2002 268.297 40.3202C268.417 41.1602 268.177 42.1202 267.457 42.7202C267.097 42.9602 266.857 43.0802 266.497 43.0802C266.017 43.0802 265.657 42.7202 265.297 42.4802C264.217 41.7602 263.377 41.0402 263.977 39.3602C264.337 38.5202 263.617 38.2802 262.897 38.1602C260.857 38.1602 259.417 38.8802 257.737 39.9602C245.497 47.7602 237.937 64.6802 236.257 78.4802C236.017 80.8802 236.017 83.1602 236.497 85.3202C236.737 86.8802 237.217 88.9202 239.017 88.9202C245.737 88.9202 263.497 73.4402 269.017 68.6402L279.457 59.6402C280.057 59.1602 280.777 58.9202 281.497 58.9202C282.697 58.9202 283.897 59.6402 284.257 60.7202C284.257 60.9602 284.257 61.3202 284.137 61.4402L283.057 62.5202C277.057 67.6802 271.057 72.8402 264.937 77.8802C259.297 82.5602 247.777 91.5602 240.577 91.5602C236.257 91.5602 232.537 89.1602 231.697 84.7202ZM310.308 63.0002C310.188 63.3602 309.948 64.0802 310.428 64.2002H310.668C311.268 64.2002 311.508 63.6002 311.748 63.2402C318.108 54.0002 324.708 44.8802 333.348 37.6802C334.188 36.8402 335.028 36.6002 335.868 36.6002C336.588 36.6002 337.308 36.8402 337.908 37.2002C339.348 38.1602 340.548 39.2402 339.828 41.2802C335.148 54.2402 331.068 66.6002 329.628 80.4002C329.388 82.9202 329.388 85.4402 329.868 87.8402C329.988 88.2002 330.348 88.4402 330.708 88.4402C332.148 88.4402 337.428 82.6802 338.508 81.4802C341.628 77.7602 344.628 74.0402 347.748 70.3202C350.388 67.3202 352.908 64.3202 355.548 61.3202C356.628 60.1202 357.468 59.5202 358.428 59.5202C359.268 59.5202 359.988 59.8802 360.828 60.7202C361.308 61.0802 361.308 61.5602 360.828 62.1602C360.468 62.6402 359.988 63.1202 359.628 63.6002C356.268 67.2002 353.268 70.9202 350.268 74.6402C347.148 78.6002 343.908 82.3202 340.548 86.0402C338.148 88.4402 334.668 91.9202 330.948 91.9202C328.548 91.9202 326.268 90.7202 325.548 88.3202C324.828 85.8002 324.708 83.1602 324.828 80.5202C325.548 71.4002 327.708 62.2802 330.708 53.2802C331.668 50.2802 332.988 47.2802 333.588 44.2802C331.188 44.2802 321.828 57.0002 320.028 59.5202C317.148 63.7202 314.268 67.8002 311.148 71.8802C310.428 72.6002 309.708 72.8402 308.868 72.8402C306.588 72.8402 305.028 71.6402 305.028 69.2402C305.028 61.8002 306.828 54.0002 308.748 46.9202C309.948 42.8402 309.948 41.6402 309.348 42.0002C306.348 43.5602 295.788 61.3202 293.868 64.6802C292.188 67.3202 290.628 70.0802 288.948 72.7202C287.388 74.8802 285.588 77.5202 282.588 77.5202C280.788 77.5202 279.108 76.4402 278.748 74.6402C278.628 73.9202 278.508 73.0802 278.628 72.2402C279.948 60.2402 282.588 50.0402 288.468 39.4802C288.828 38.7602 289.428 38.4002 290.148 38.4002C290.868 38.4002 291.828 38.8802 292.428 39.2402C293.868 39.9602 293.748 40.2002 292.668 41.7602C287.628 49.0802 284.988 61.3202 283.788 69.9602C283.668 70.2002 283.788 70.5602 283.908 70.5602C284.028 70.6802 284.148 70.6802 284.148 70.6802C284.388 70.6802 284.628 70.4402 284.868 70.2002C285.708 68.8802 286.668 67.5602 287.388 66.1202C291.228 59.7602 294.948 53.4002 299.268 47.1602C302.148 42.8402 305.388 38.2802 309.108 34.6802C310.068 33.7202 310.908 33.3602 311.868 33.3602C312.348 33.3602 312.828 33.4802 313.428 33.7202C316.068 34.9202 316.308 36.0002 315.708 38.5202C314.868 42.2402 313.908 45.9602 312.948 49.6802C311.748 54.1202 310.908 58.5602 310.308 63.0002ZM311.388 22.4402C315.468 21.7202 319.428 20.8802 323.508 20.2802C325.908 19.9202 328.308 19.6802 330.708 19.6802C334.788 19.6802 338.748 19.9202 339.468 24.9602C339.708 26.2802 339.948 27.6002 339.588 29.0402C339.588 29.1602 339.348 29.4002 339.108 29.5202C338.988 29.5202 338.628 29.5202 338.508 29.4002C337.788 28.8002 337.428 27.8402 337.428 26.7602C337.428 24.9602 336.348 24.4802 334.908 24.3602C333.948 24.2402 332.868 24.1202 331.908 24.1202C330.708 24.1202 329.508 24.2402 328.308 24.3602C323.868 25.0802 319.548 25.8002 315.108 26.5202C311.388 27.1202 307.788 27.7202 303.948 27.9602C299.748 27.9602 295.548 26.2802 295.548 21.2402C295.548 20.8802 295.668 20.2802 296.268 20.1602C296.508 20.0402 296.988 20.2802 297.108 20.4002C297.588 20.8802 297.948 21.4802 298.188 22.0802C298.548 23.2802 299.508 23.5202 300.828 23.6402C304.428 23.6402 307.908 23.0402 311.388 22.4402ZM413.457 58.8002C414.297 58.8002 415.137 59.1602 415.857 59.5202C416.817 60.1202 417.297 60.8402 417.057 61.3202C416.457 62.0402 415.737 61.8002 415.017 61.9202C413.217 62.4002 411.417 62.6402 409.737 63.3602C399.177 67.3202 387.897 72.6002 379.737 80.6402C378.537 81.8402 377.097 83.0402 375.777 84.1202C374.817 84.8402 373.977 85.0802 373.137 85.0802C372.297 85.0802 371.577 84.8402 370.857 84.3602C370.257 84.0002 370.137 83.1602 370.737 82.5602C371.697 81.7202 372.537 80.7602 373.617 80.0402C382.377 73.3202 390.297 59.8802 391.857 48.7202C392.097 47.6402 392.097 46.4402 391.857 45.3602C391.617 44.6402 391.257 44.2802 390.417 44.2802C387.297 44.2802 382.377 48.9602 380.337 51.2402C367.377 65.5202 360.417 84.6002 355.857 103.08C355.257 105.36 354.897 107.76 354.777 110.04C354.777 111.72 353.577 112.2 352.137 112.2C351.777 112.2 351.297 112.2 351.057 112.08C350.097 111.96 349.497 111.36 349.497 110.28C349.857 103.44 349.977 96.6002 350.937 89.6402C353.937 68.8802 359.097 48.6002 365.337 28.4402C365.697 27.3602 366.297 26.8802 367.137 26.8802C367.257 26.8802 367.497 26.8802 367.737 27.0002C368.097 27.1202 368.457 27.2402 368.697 27.3602C370.137 28.0802 370.257 28.3202 369.897 30.0002C369.057 33.1202 368.217 36.3602 367.257 39.4802C363.777 51.2402 361.017 63.1202 358.497 75.1202C358.257 75.8402 357.897 76.6802 358.377 77.5202C359.337 76.9202 359.577 75.9602 359.937 75.1202C364.497 64.8002 377.097 41.5202 388.857 41.5202C393.057 41.5202 396.057 44.4002 396.177 48.8402C396.177 52.8002 394.977 56.7602 393.537 60.7202C392.817 62.2802 391.977 63.8402 391.257 65.4002C391.017 66.0002 390.537 66.4802 390.897 67.0802H391.257C391.857 67.0802 392.337 66.6002 392.937 66.3602C397.737 63.9602 408.057 58.8002 413.457 58.8002ZM415.322 78.3602C412.322 78.3602 410.402 76.4402 410.522 73.3202C410.522 70.8002 411.122 68.4002 412.082 66.0002C416.042 55.3202 425.762 40.6802 438.482 40.6802C440.882 40.6802 443.282 41.2802 445.202 42.4802C445.922 42.9602 446.282 43.2002 446.642 43.2002C447.122 43.2002 447.602 42.7202 448.562 41.8802C450.482 39.8402 452.402 37.6802 454.562 35.8802C455.882 34.8002 456.842 34.2002 457.802 34.2002C458.522 34.2002 459.242 34.5602 460.202 35.0402C461.642 35.8802 462.122 37.0802 461.522 38.7602C460.802 41.4002 459.962 44.1602 459.122 46.8002C457.442 52.2002 455.642 57.6002 453.962 63.1202C451.922 69.9602 450.242 76.8002 449.402 83.7602C449.042 87.0002 448.922 90.2402 449.162 93.4802C449.162 94.4402 449.402 95.4002 449.642 96.4802C449.762 97.2002 450.122 97.5602 450.602 97.4402C452.402 96.9602 457.802 90.1202 459.002 88.5602C463.682 82.0802 468.362 75.6002 473.162 69.2402C474.962 66.6002 476.882 64.0802 478.802 61.5602C479.642 60.4802 480.722 59.8802 481.802 59.8802C482.762 59.8802 483.482 60.2402 484.202 60.9602C484.442 61.2002 484.442 61.5602 484.202 61.9202C484.082 62.2802 483.842 62.5202 483.602 62.8802C476.882 71.6402 470.882 80.7602 463.922 89.4002C462.362 91.3202 460.922 93.2402 459.242 95.0402C456.842 97.5602 453.722 100.68 449.882 100.56C447.002 100.56 445.202 99.3602 444.602 96.6002C444.002 93.9602 443.882 91.0802 444.002 88.2002C444.722 75.1202 448.802 62.4002 453.002 50.1602C453.722 47.7602 454.442 45.4802 455.162 43.2002C455.282 42.8402 455.282 42.4802 454.802 42.3602C454.682 42.3602 454.322 42.4802 454.202 42.7202C453.242 43.5602 452.402 44.4002 451.562 45.3602C443.162 54.2402 434.882 63.0002 426.242 71.5202C423.722 74.1602 419.162 78.3602 415.322 78.3602ZM415.442 72.8402C415.322 72.9602 415.322 73.2002 415.322 73.4402C415.322 74.0402 415.562 74.4002 415.922 74.4002C418.802 74.4002 441.002 50.0402 443.282 47.2802C443.762 46.8002 443.882 46.2002 443.762 45.6002C443.402 44.0402 442.682 43.4402 441.002 43.4402C428.282 43.5602 418.442 60.7202 415.682 71.4002C415.562 71.8802 415.442 72.3602 415.442 72.8402ZM510.113 63.0002C509.993 63.3602 509.753 64.0802 510.233 64.2002H510.473C511.073 64.2002 511.313 63.6002 511.553 63.2402C517.913 54.0002 524.513 44.8802 533.153 37.6802C533.993 36.8402 534.833 36.6002 535.673 36.6002C536.393 36.6002 537.113 36.8402 537.713 37.2002C539.153 38.1602 540.353 39.2402 539.633 41.2802C534.953 54.2402 530.873 66.6002 529.433 80.4002C529.193 82.9202 529.193 85.4402 529.673 87.8402C529.793 88.2002 530.153 88.4402 530.513 88.4402C531.953 88.4402 537.233 82.6802 538.313 81.4802C541.433 77.7602 544.433 74.0402 547.553 70.3202C550.193 67.3202 552.713 64.3202 555.353 61.3202C556.433 60.1202 557.273 59.5202 558.233 59.5202C559.073 59.5202 559.793 59.8802 560.633 60.7202C561.113 61.0802 561.113 61.5602 560.633 62.1602C560.273 62.6402 559.793 63.1202 559.433 63.6002C556.073 67.2002 553.073 70.9202 550.073 74.6402C546.953 78.6002 543.713 82.3202 540.353 86.0402C537.953 88.4402 534.473 91.9202 530.753 91.9202C528.353 91.9202 526.073 90.7202 525.353 88.3202C524.633 85.8002 524.513 83.1602 524.633 80.5202C525.353 71.4002 527.513 62.2802 530.513 53.2802C531.473 50.2802 532.793 47.2802 533.393 44.2802C530.993 44.2802 521.633 57.0002 519.833 59.5202C516.953 63.7202 514.073 67.8002 510.953 71.8802C510.233 72.6002 509.513 72.8402 508.673 72.8402C506.393 72.8402 504.833 71.6402 504.833 69.2402C504.833 61.8002 506.633 54.0002 508.553 46.9202C509.753 42.8402 509.753 41.6402 509.153 42.0002C506.153 43.5602 495.593 61.3202 493.673 64.6802C491.993 67.3202 490.433 70.0802 488.753 72.7202C487.193 74.8802 485.393 77.5202 482.393 77.5202C480.593 77.5202 478.913 76.4402 478.553 74.6402C478.433 73.9202 478.313 73.0802 478.433 72.2402C479.753 60.2402 482.393 50.0402 488.273 39.4802C488.633 38.7602 489.233 38.4002 489.953 38.4002C490.673 38.4002 491.633 38.8802 492.233 39.2402C493.673 39.9602 493.553 40.2002 492.473 41.7602C487.433 49.0802 484.793 61.3202 483.593 69.9602C483.473 70.2002 483.593 70.5602 483.713 70.5602C483.833 70.6802 483.953 70.6802 483.953 70.6802C484.193 70.6802 484.433 70.4402 484.673 70.2002C485.513 68.8802 486.473 67.5602 487.193 66.1202C491.033 59.7602 494.753 53.4002 499.073 47.1602C501.953 42.8402 505.193 38.2802 508.913 34.6802C509.873 33.7202 510.713 33.3602 511.673 33.3602C512.153 33.3602 512.633 33.4802 513.233 33.7202C515.873 34.9202 516.113 36.0002 515.513 38.5202C514.673 42.2402 513.713 45.9602 512.753 49.6802C511.553 54.1202 510.713 58.5602 510.113 63.0002ZM511.193 22.4402C515.273 21.7202 519.233 20.8802 523.313 20.2802C525.713 19.9202 528.113 19.6802 530.513 19.6802C534.593 19.6802 538.553 19.9202 539.273 24.9602C539.513 26.2802 539.753 27.6002 539.393 29.0402C539.393 29.1602 539.153 29.4002 538.913 29.5202C538.793 29.5202 538.433 29.5202 538.313 29.4002C537.593 28.8002 537.233 27.8402 537.233 26.7602C537.233 24.9602 536.153 24.4802 534.713 24.3602C533.753 24.2402 532.673 24.1202 531.713 24.1202C530.513 24.1202 529.313 24.2402 528.113 24.3602C523.673 25.0802 519.353 25.8002 514.913 26.5202C511.193 27.1202 507.593 27.7202 503.753 27.9602C499.553 27.9602 495.353 26.2802 495.353 21.2402C495.353 20.8802 495.473 20.2802 496.073 20.1602C496.313 20.0402 496.793 20.2802 496.913 20.4002C497.393 20.8802 497.753 21.4802 497.993 22.0802C498.353 23.2802 499.313 23.5202 500.633 23.6402C504.233 23.6402 507.713 23.0402 511.193 22.4402ZM555.662 61.4402C552.302 56.2802 554.342 47.4002 558.782 41.8802C562.742 37.0802 567.902 34.3202 574.022 34.3202C584.222 34.3202 591.782 42.4802 590.822 52.5602C590.342 57.0002 589.022 61.3202 587.342 65.4002C586.982 66.1202 587.222 66.6002 587.702 66.6002C590.222 66.6002 598.262 61.3202 600.542 59.7602C601.742 58.9202 602.462 58.4402 603.182 58.4402C603.782 58.4402 604.502 58.6802 605.582 59.4002C606.542 60.0002 606.542 60.7202 605.342 61.5602C599.462 65.7602 592.982 69.2402 585.902 70.9202C584.942 71.0402 584.342 71.6402 583.862 72.3602C580.022 78.7202 573.902 87.0002 565.862 87.0002C563.102 87.0002 560.582 85.9202 558.542 83.8802C555.422 80.6402 554.222 76.4402 554.582 71.6402C554.702 69.4802 555.062 67.4402 555.782 65.2802C556.262 63.8402 556.382 62.6402 555.662 61.4402ZM559.982 49.3202C558.902 51.7202 558.422 54.1202 558.542 56.6402C558.542 56.8802 558.662 57.2402 558.782 57.1202C559.142 57.1202 559.502 57.0002 559.742 56.8802C560.102 56.5202 560.342 56.0402 560.582 55.5602C561.662 54.1202 564.542 50.0402 566.582 50.0402C567.422 50.0402 568.262 50.5202 569.222 51.3602C570.302 52.4402 568.502 53.0402 567.902 53.8802C567.662 54.4802 567.062 54.8402 566.702 55.3202C564.662 57.7202 563.222 60.2402 561.902 63.0002C561.542 63.8402 561.542 64.5602 562.262 65.1602C565.262 68.0402 570.302 69.3602 574.382 69.3602C575.942 69.3602 577.502 69.2402 579.182 68.8802C582.182 68.2802 585.302 56.6402 585.782 54.0002C586.622 49.6802 586.502 45.6002 584.582 42.0002C582.782 38.6402 580.262 37.0802 576.782 37.0802C568.982 37.0802 562.982 42.4802 559.982 49.3202ZM560.102 68.2802C559.022 72.2402 559.262 75.9602 560.462 79.4402C561.062 81.1202 563.102 84.7202 565.142 84.7202C569.702 84.7202 576.302 76.0802 577.982 72.3602C577.502 72.2402 577.142 72.1202 576.662 72.1202C571.262 71.8802 566.342 70.5602 562.022 67.9202C561.902 67.8002 561.662 67.6802 561.422 67.5602C560.822 67.5602 560.222 67.5602 560.102 68.2802ZM658.614 58.8002C659.454 58.8002 660.294 59.1602 661.014 59.5202C661.974 60.1202 662.454 60.8402 662.214 61.3202C661.614 62.0402 660.894 61.8002 660.174 61.9202C658.374 62.4002 656.574 62.6402 654.894 63.3602C644.334 67.3202 633.054 72.6002 624.894 80.6402C623.694 81.8402 622.254 83.0402 620.934 84.1202C619.974 84.8402 619.134 85.0802 618.294 85.0802C617.454 85.0802 616.734 84.8402 616.014 84.3602C615.414 84.0002 615.294 83.1602 615.894 82.5602C616.854 81.7202 617.694 80.7602 618.774 80.0402C627.534 73.3202 635.454 59.8802 637.014 48.7202C637.254 47.6402 637.254 46.4402 637.014 45.3602C636.774 44.6402 636.414 44.2802 635.574 44.2802C632.454 44.2802 627.534 48.9602 625.494 51.2402C612.534 65.5202 605.574 84.6002 601.014 103.08C600.414 105.36 600.054 107.76 599.934 110.04C599.934 111.72 598.734 112.2 597.294 112.2C596.934 112.2 596.454 112.2 596.214 112.08C595.254 111.96 594.654 111.36 594.654 110.28C595.014 103.44 595.134 96.6002 596.094 89.6402C599.094 68.8802 604.254 48.6002 610.494 28.4402C610.854 27.3602 611.454 26.8802 612.294 26.8802C612.414 26.8802 612.654 26.8802 612.894 27.0002C613.254 27.1202 613.614 27.2402 613.854 27.3602C615.294 28.0802 615.414 28.3202 615.054 30.0002C614.214 33.1202 613.374 36.3602 612.414 39.4802C608.934 51.2402 606.174 63.1202 603.654 75.1202C603.414 75.8402 603.054 76.6802 603.534 77.5202C604.494 76.9202 604.734 75.9602 605.094 75.1202C609.654 64.8002 622.254 41.5202 634.014 41.5202C638.214 41.5202 641.214 44.4002 641.334 48.8402C641.334 52.8002 640.134 56.7602 638.694 60.7202C637.974 62.2802 637.134 63.8402 636.414 65.4002C636.174 66.0002 635.694 66.4802 636.054 67.0802H636.414C637.014 67.0802 637.494 66.6002 638.094 66.3602C642.894 63.9602 653.214 58.8002 658.614 58.8002Z" fill="black"/>
</svg>
