<svg width="800" height="438" viewBox="0 0 800 438" fill="none" xmlns="http://www.w3.org/2000/svg">
<path d="M490.158 353.258V302.967H474.088V257.025L475.316 257.592C475.978 257.876 476.545 257.97 477.302 257.97C479.287 257.97 481.177 256.836 482.028 254.851L489.213 237.457C489.78 236.228 489.78 234.81 489.213 233.581C488.645 232.352 487.7 231.407 486.471 230.84L376.909 185.465C380.88 177.808 384.472 170.056 387.591 162.305C388.631 159.752 387.402 156.822 384.85 155.687L341.555 137.727C339.002 136.687 335.977 137.916 334.938 140.373C324.256 165.519 317.355 193.405 313.195 228.382C312.912 230.651 314.235 232.825 316.315 233.676L334.843 241.333C336.923 242.184 339.381 241.616 340.704 239.82C348.739 229.611 355.64 220.063 361.973 210.516L383.905 219.591L382.865 227.059L379.556 249.652L364.62 353.258H291.359V371.124H512.656V353.258H490.158ZM413.871 263.264L396.005 249.935L410.184 237.93L413.871 263.264ZM416.329 280.563L421.717 318.281L392.413 295.783L416.329 280.563ZM394.398 224.034L404.513 228.287L392.318 238.591L394.398 224.034ZM389.388 258.916L407.916 272.717L385.323 287.086L389.388 258.916ZM383.054 302.589L413.493 325.938L375.775 353.258L383.054 302.589ZM394.681 353.258L423.797 332.177L426.822 353.258H394.681ZM423.135 249.746L421.056 235.094L463.973 252.866V303.062H448.47V353.258H438.071L423.135 249.746Z" fill="black"/>
<path d="M0 0.25V437.75H800V425.25V0.25H0ZM775 412.75H25V25.25H775V412.75Z" fill="#F5BE1A"/>
<path d="M125.903 377.252H674.097C681.884 345.416 707.617 320.659 739.991 314.386V123.614C707.617 117.316 681.884 92.5595 674.097 60.7485H125.903C118.116 92.5595 92.3828 117.316 60.0094 123.614V314.386C92.3828 320.661 118.116 345.416 125.903 377.252ZM625.537 187.725C642.773 187.725 656.787 201.714 656.787 218.975C656.787 236.236 642.773 250.225 625.537 250.225C608.252 250.225 594.287 236.236 594.287 218.975C594.287 201.714 608.252 187.725 625.537 187.725ZM400 87.2126C472.803 87.2126 531.787 146.222 531.787 218.975C531.787 291.778 472.803 350.786 400 350.786C327.245 350.786 268.213 291.777 268.213 218.975C268.213 146.222 327.247 87.2126 400 87.2126ZM174.463 187.725C191.748 187.725 205.713 201.714 205.713 218.975C205.713 236.236 191.747 250.225 174.463 250.225C157.227 250.225 143.213 236.236 143.213 218.975C143.213 201.714 157.227 187.725 174.463 187.725Z" fill="#F5BE1A"/>
</svg>
