<svg width="873" height="269" viewBox="0 0 873 269" fill="none" xmlns="http://www.w3.org/2000/svg">
<path d="M309.18 87.8001C310.02 87.8001 310.86 88.1601 311.58 88.5201C312.54 89.1201 313.02 89.8401 312.78 90.3201C312.18 91.0401 311.46 90.8001 310.74 90.9201C308.94 91.4001 307.14 91.6401 305.46 92.3601C294.9 96.3201 283.62 101.6 275.46 109.64C274.26 110.84 272.82 112.04 271.5 113.12C270.54 113.84 269.7 114.08 268.86 114.08C268.02 114.08 267.3 113.84 266.58 113.36C265.98 113 265.86 112.16 266.46 111.56C267.42 110.72 268.26 109.76 269.34 109.04C278.1 102.32 286.02 88.8801 287.58 77.7201C287.82 76.6401 287.82 75.4401 287.58 74.3601C287.34 73.6401 286.98 73.2801 286.14 73.2801C283.02 73.2801 278.1 77.9601 276.06 80.2401C263.1 94.5201 256.14 113.6 251.58 132.08C250.98 134.36 250.62 136.76 250.5 139.04C250.5 140.72 249.3 141.2 247.86 141.2C247.5 141.2 247.02 141.2 246.78 141.08C245.82 140.96 245.22 140.36 245.22 139.28C245.58 132.44 245.7 125.6 246.66 118.64C249.66 97.8801 254.82 77.6001 261.06 57.4401C261.42 56.3601 262.02 55.8801 262.86 55.8801C262.98 55.8801 263.22 55.8801 263.46 56.0001C263.82 56.1201 264.18 56.2401 264.42 56.3601C265.86 57.0801 265.98 57.3201 265.62 59.0001C264.78 62.1201 263.94 65.3601 262.98 68.4801C259.5 80.2401 256.74 92.1201 254.22 104.12C253.98 104.84 253.62 105.68 254.1 106.52C255.06 105.92 255.3 104.96 255.66 104.12C260.22 93.8001 272.82 70.5201 284.58 70.5201C288.78 70.5201 291.78 73.4001 291.9 77.8401C291.9 81.8001 290.7 85.7601 289.26 89.7201C288.54 91.2801 287.7 92.8401 286.98 94.4001C286.74 95.0001 286.26 95.4801 286.62 96.0801H286.98C287.58 96.0801 288.06 95.6001 288.66 95.3601C293.46 92.9601 303.78 87.8001 309.18 87.8001ZM307.445 158.24C307.325 146.96 324.845 125.24 332.405 117.08C333.725 115.64 334.565 113.96 335.045 112.28C338.765 100.28 342.125 88.0401 344.165 75.5601C344.165 75.4401 343.925 75.0801 343.805 75.0801C343.565 75.0801 343.325 75.0801 343.205 75.2001C342.365 76.0401 341.645 76.8801 340.805 77.7201C336.845 82.5201 333.125 87.5601 329.405 92.4801C327.125 95.6001 324.845 98.4801 322.445 101.48C320.405 104.12 317.165 107.48 313.685 107.48C311.525 107.48 309.845 106.16 309.365 104C309.005 101.6 309.245 98.9601 309.485 96.4401C310.205 87.8001 312.245 79.1601 316.445 71.4801C316.805 70.7601 317.405 70.4001 318.125 70.4001C318.845 70.4001 319.565 70.6401 320.045 70.8801C320.525 71.2401 320.885 71.6001 321.485 71.9601C316.085 82.1601 314.285 92.4801 314.285 102.92C314.405 102.92 314.525 103.04 314.765 103.04C315.365 103.04 315.725 102.68 316.085 102.2C318.005 99.8001 320.045 97.2801 321.965 94.7601C325.565 90.0801 328.925 85.4001 332.525 80.8401C334.685 77.9601 336.965 75.3201 339.245 72.5601C340.325 71.2401 342.725 68.6001 344.525 68.6001C346.445 68.6001 348.965 70.2801 348.965 72.2001C349.085 73.6401 349.085 75.0801 348.845 76.4001C348.365 79.4001 348.005 82.5201 347.285 85.5201C345.845 91.8801 344.165 98.1201 342.605 104.48C342.485 104.96 342.365 105.56 342.365 106.16C342.365 106.28 342.725 106.52 342.845 106.4L344.285 105.32C348.005 101.96 364.925 88.0401 368.645 88.0401C369.605 88.0401 370.325 88.6401 371.765 89.8401C371.285 90.9201 370.205 91.1601 369.485 91.6401C359.045 97.7601 349.925 105.56 341.285 113.96C339.605 115.64 338.525 117.32 337.685 119.6C334.325 129.8 323.285 161 310.925 161C309.005 161 307.445 160.4 307.445 158.24ZM313.445 152.24C312.845 153.8 312.485 155.24 312.605 156.8C312.605 157.04 312.965 157.28 313.205 157.28C313.445 157.28 313.565 157.16 313.685 157.04C321.125 149.48 325.205 139.64 329.045 129.92C329.165 129.44 329.285 128.96 329.045 128.6C328.565 128.6 328.205 128.96 327.845 129.44C322.325 136.52 316.805 143.84 313.445 152.24ZM364.275 114.08C362.715 113.72 362.355 113.24 362.475 111.44C362.595 110.24 362.835 109.04 363.075 107.96C364.275 100.76 365.595 93.6801 366.795 86.4801C367.875 78.4401 370.155 70.4001 371.715 62.3601L372.075 60.9201C372.315 60.3201 372.675 59.9601 373.275 59.9601C373.875 59.9601 374.475 60.0801 375.075 60.3201C376.275 60.8001 376.875 61.5201 376.515 62.9601L373.635 76.2801C372.675 80.0001 371.955 83.7201 371.355 87.4401C371.235 88.1601 371.475 88.5201 371.955 88.5201C372.075 88.5201 372.315 88.4001 372.555 88.2801C383.955 81.2001 393.555 70.8801 401.595 60.3201C402.675 58.8801 403.395 58.1601 404.115 58.1601C404.715 58.1601 405.435 58.6401 406.275 59.4801C407.115 60.3201 407.115 60.8001 406.035 62.2401C397.155 74.9601 387.555 82.8801 375.315 91.6401C371.835 94.2801 371.235 95.8401 373.035 99.0801C375.075 102.8 377.955 104.96 382.155 104.96C392.595 104.96 403.755 95.7201 411.315 89.4801C412.275 88.6401 413.235 88.2801 413.955 88.2801C414.795 88.2801 415.515 88.6401 416.355 89.6001C416.715 89.8401 416.715 90.3201 416.355 90.8001C415.995 91.2801 415.515 91.7601 415.035 92.1201C406.875 99.0801 395.715 107.6 384.555 107.6C380.115 107.6 376.275 106.04 372.915 103.28L372.195 102.56C371.355 101.96 370.995 100.76 369.795 100.52C368.475 101.6 368.835 102.92 368.715 104.12C368.475 106.88 367.755 109.52 367.755 112.16C367.755 113.72 366.555 114.2 365.235 114.2C364.875 114.2 364.515 114.2 364.275 114.08ZM412.01 90.4401C408.65 85.2801 410.69 76.4001 415.13 70.8801C419.09 66.0801 424.25 63.3201 430.37 63.3201C440.57 63.3201 448.13 71.4801 447.17 81.5601C446.69 86.0001 445.37 90.3201 443.69 94.4001C443.33 95.1201 443.57 95.6001 444.05 95.6001C446.57 95.6001 454.61 90.3201 456.89 88.7601C458.09 87.9201 458.81 87.4401 459.53 87.4401C460.13 87.4401 460.85 87.6801 461.93 88.4001C462.89 89.0001 462.89 89.7201 461.69 90.5601C455.81 94.7601 449.33 98.2401 442.25 99.9201C441.29 100.04 440.69 100.64 440.21 101.36C436.37 107.72 430.25 116 422.21 116C419.45 116 416.93 114.92 414.89 112.88C411.77 109.64 410.57 105.44 410.93 100.64C411.05 98.4801 411.41 96.4401 412.13 94.2801C412.61 92.8401 412.73 91.6401 412.01 90.4401ZM416.33 78.3201C415.25 80.7201 414.77 83.1201 414.89 85.6401C414.89 85.8801 415.01 86.2401 415.13 86.1201C415.49 86.1201 415.85 86.0001 416.09 85.8801C416.45 85.5201 416.69 85.0401 416.93 84.5601C418.01 83.1201 420.89 79.0401 422.93 79.0401C423.77 79.0401 424.61 79.5201 425.57 80.3601C426.65 81.4401 424.85 82.0401 424.25 82.8801C424.01 83.4801 423.41 83.8401 423.05 84.3201C421.01 86.7201 419.57 89.2401 418.25 92.0001C417.89 92.8401 417.89 93.5601 418.61 94.1601C421.61 97.0401 426.65 98.3601 430.73 98.3601C432.29 98.3601 433.85 98.2401 435.53 97.8801C438.53 97.2801 441.65 85.6401 442.13 83.0001C442.97 78.6801 442.85 74.6001 440.93 71.0001C439.13 67.6401 436.61 66.0801 433.13 66.0801C425.33 66.0801 419.33 71.4801 416.33 78.3201ZM416.45 97.2801C415.37 101.24 415.61 104.96 416.81 108.44C417.41 110.12 419.45 113.72 421.49 113.72C426.05 113.72 432.65 105.08 434.33 101.36C433.85 101.24 433.49 101.12 433.01 101.12C427.61 100.88 422.69 99.5601 418.37 96.9201C418.25 96.8001 418.01 96.6801 417.77 96.5601C417.17 96.5601 416.57 96.5601 416.45 97.2801ZM453.881 126.92C453.641 118.76 454.001 110.6 455.561 102.2C460.601 75.0801 475.241 40.4001 491.441 19.0401C495.641 13.6401 506.081 0.560059 513.521 0.560059C515.801 0.560059 517.601 1.64006 519.161 4.04006C520.361 5.72006 520.721 7.76006 520.481 10.0401C520.001 14.3601 518.681 18.4401 516.641 22.5201C513.281 29.2401 509.441 35.7201 505.361 42.0801C499.241 51.3201 474.641 85.4001 465.041 91.0401C463.241 92.1201 462.401 93.5601 461.921 95.3601C461.081 99.6801 460.241 104.12 459.761 108.44C459.641 108.68 459.761 109.16 460.001 109.28C460.241 109.4 460.601 109.04 460.841 108.68C464.681 102.08 471.881 91.2801 480.281 91.2801C484.361 91.2801 488.321 93.8001 488.921 97.5201C489.041 98.7201 489.161 99.8001 489.401 100.88C489.401 101.24 489.641 101.48 490.001 101.48C490.121 101.48 490.241 101.36 490.481 101.36C491.441 100.76 492.401 100.04 493.241 99.4401C498.401 95.8401 503.681 92.6001 509.321 89.9601C509.681 89.7201 510.161 89.6001 510.641 89.3601C511.481 88.8801 512.321 88.6401 513.041 88.6401C514.241 88.6401 515.321 89.2401 516.281 90.2001C516.521 90.5601 516.401 91.1601 515.921 91.4001C506.921 95.4801 498.761 100.4 490.961 106.52C489.281 107.84 488.081 109.16 487.721 111.2C485.681 119.72 481.001 129.08 473.561 134C472.361 134.72 471.161 135.08 469.961 135.08C469.481 135.08 468.881 134.96 468.401 134.84C465.761 134.12 464.921 132.56 465.641 129.68C467.321 123.2 477.161 112.88 481.961 108.56C483.281 107.24 483.881 105.92 484.121 104.36C484.481 102.2 484.601 100.16 484.361 98.1201C484.121 96.9201 483.521 93.8001 481.961 93.8001C481.601 93.8001 481.121 93.9201 480.641 94.0401C470.201 97.8801 462.761 114.32 460.361 124.16C460.001 125.6 459.761 127.04 459.281 128.36C458.921 129.68 457.961 130.16 456.641 130.16C454.721 130.16 454.001 129.2 453.881 126.92ZM467.081 78.3201C466.481 80.2401 465.521 82.1601 465.281 84.8001C467.081 83.7201 468.041 82.5201 469.001 81.4401C482.681 66.2001 516.881 23.1201 516.881 6.08006C516.881 4.76006 516.401 4.28006 515.441 4.28006C506.081 4.28006 489.281 29.8401 484.841 37.7601C477.401 50.8401 471.761 64.4001 467.081 78.3201ZM470.681 130.28C470.681 130.4 470.681 130.52 470.801 130.52C471.041 130.64 471.281 130.76 471.401 130.64C475.121 128.12 478.481 122.24 480.041 118.28C480.161 117.92 480.281 117.56 479.921 117.44C478.241 117.44 471.161 127.88 470.681 130.28ZM511.033 90.4401C507.673 85.2801 509.713 76.4001 514.153 70.8801C518.113 66.0801 523.273 63.3201 529.393 63.3201C539.593 63.3201 547.153 71.4801 546.193 81.5601C545.713 86.0001 544.393 90.3201 542.713 94.4001C542.353 95.1201 542.593 95.6001 543.073 95.6001C545.593 95.6001 553.633 90.3201 555.913 88.7601C557.113 87.9201 557.833 87.4401 558.553 87.4401C559.153 87.4401 559.873 87.6801 560.953 88.4001C561.913 89.0001 561.913 89.7201 560.713 90.5601C554.833 94.7601 548.353 98.2401 541.273 99.9201C540.313 100.04 539.713 100.64 539.233 101.36C535.393 107.72 529.273 116 521.233 116C518.473 116 515.953 114.92 513.913 112.88C510.793 109.64 509.593 105.44 509.953 100.64C510.073 98.4801 510.433 96.4401 511.153 94.2801C511.633 92.8401 511.753 91.6401 511.033 90.4401ZM515.353 78.3201C514.273 80.7201 513.793 83.1201 513.913 85.6401C513.913 85.8801 514.033 86.2401 514.153 86.1201C514.513 86.1201 514.873 86.0001 515.113 85.8801C515.473 85.5201 515.713 85.0401 515.953 84.5601C517.033 83.1201 519.913 79.0401 521.953 79.0401C522.793 79.0401 523.633 79.5201 524.593 80.3601C525.673 81.4401 523.873 82.0401 523.273 82.8801C523.033 83.4801 522.433 83.8401 522.073 84.3201C520.033 86.7201 518.593 89.2401 517.273 92.0001C516.913 92.8401 516.913 93.5601 517.633 94.1601C520.633 97.0401 525.673 98.3601 529.753 98.3601C531.313 98.3601 532.873 98.2401 534.553 97.8801C537.553 97.2801 540.673 85.6401 541.153 83.0001C541.993 78.6801 541.873 74.6001 539.953 71.0001C538.153 67.6401 535.633 66.0801 532.153 66.0801C524.353 66.0801 518.353 71.4801 515.353 78.3201ZM515.473 97.2801C514.393 101.24 514.633 104.96 515.833 108.44C516.433 110.12 518.473 113.72 520.513 113.72C525.073 113.72 531.673 105.08 533.353 101.36C532.873 101.24 532.513 101.12 532.033 101.12C526.633 100.88 521.713 99.5601 517.393 96.9201C517.273 96.8001 517.033 96.6801 516.793 96.5601C516.193 96.5601 515.593 96.5601 515.473 97.2801ZM549.185 154.76C549.065 153.08 549.305 151.52 549.785 149.84C553.865 136.4 569.825 119.72 579.905 110.84C581.825 109.4 583.145 108.2 583.865 105.92C587.465 95.8401 591.065 85.7601 594.545 75.5601C594.905 74.8401 595.145 74.0001 595.025 73.1601H594.665C593.705 73.1601 593.105 74.0001 592.385 74.6001C587.825 78.5601 583.145 82.6401 578.585 86.7201C574.985 89.8401 571.385 93.2001 567.545 96.0801C566.105 97.1601 564.545 98.1201 563.105 99.0801C562.025 99.6801 561.065 99.9201 559.985 99.9201C559.625 99.9201 559.265 99.9201 558.905 99.8001C556.265 99.4401 555.065 97.8801 555.665 95.1201C558.305 83.9601 572.825 67.5201 584.945 67.5201C586.625 67.5201 588.305 67.8801 589.865 68.7201C590.225 68.9601 590.705 69.0801 591.065 69.0801C591.665 69.0801 592.265 68.9601 592.985 68.4801C594.185 67.8801 595.265 67.5201 596.225 67.5201C598.745 67.5201 600.425 69.4401 600.065 72.5601C599.825 75.3201 598.745 78.0801 597.905 80.8401C595.985 86.7201 593.825 92.4801 591.905 98.2401C591.545 99.0801 590.945 99.9201 591.305 100.88C592.505 100.88 593.345 99.9201 594.185 99.3201C598.865 95.8401 603.785 92.6001 608.825 89.7201C609.305 89.4801 609.785 89.2401 610.145 88.8801C611.105 88.2801 611.945 87.9201 612.785 87.9201C613.625 87.9201 614.465 88.4001 615.305 89.1201C615.545 89.3601 616.025 89.6001 615.905 90.2001C615.305 91.1601 614.105 91.4001 613.145 92.0001C604.985 96.5601 597.425 102.2 589.985 108.08C588.185 109.4 587.105 111.08 586.265 113.12C584.105 119.12 581.585 125 578.825 130.76C575.105 138.56 563.465 158.6 553.865 158.6C551.345 158.6 549.305 157.52 549.185 154.76ZM554.705 151.64C554.465 152.84 553.505 154.64 554.825 155.12H555.185C556.145 155.12 557.105 153.92 557.945 153.2C567.425 144.44 573.785 131.24 578.465 119.48C578.465 119.24 578.345 119.12 578.345 118.88C577.385 118.88 576.905 119.72 576.305 120.44C569.705 127.04 556.025 142.16 554.705 151.64ZM561.665 92.8401C561.305 93.5601 560.825 94.2801 561.305 94.8801C561.425 94.8801 561.425 95.0001 561.545 95.0001C562.265 95.0001 565.865 91.8801 566.465 91.4001C573.545 85.1601 580.625 78.9201 587.585 72.6801C587.945 72.4401 588.185 72.0801 588.425 71.8401C588.785 71.3601 588.545 70.5201 588.065 70.4001C586.865 70.4001 586.145 70.4001 584.945 70.6401C573.905 74.0001 566.465 82.7601 561.665 92.8401ZM667.654 89.0001C668.134 88.2801 668.854 87.9201 669.574 87.9201C670.414 87.9201 671.254 88.2801 672.094 88.6401C672.814 89.0001 672.934 89.6001 672.334 90.3201C670.294 93.2001 668.134 96.0801 666.094 98.9601C661.534 105.32 657.454 110.84 652.174 116.6C650.494 118.28 648.094 119.36 645.694 119.36C643.294 119.36 641.374 118.04 640.654 115.64C639.694 112.64 639.574 109.52 639.574 106.28C639.574 98.7201 641.254 90.0801 643.534 82.8801C644.014 81.3201 644.254 79.7601 644.494 78.3201C644.614 77.9601 644.494 77.8401 644.134 77.8401C643.534 77.9601 642.814 78.8001 642.454 79.2801C640.174 82.0401 637.774 84.9201 635.494 87.8001C632.494 91.6401 629.494 95.3601 626.494 99.0801C624.214 101.84 620.854 105.56 617.014 105.56C612.814 105.56 611.974 103.04 611.494 99.3201C611.134 96.5601 611.134 93.6801 611.494 90.6801C611.974 87.2001 615.574 66.0801 618.814 65.3601C619.774 65.3601 622.054 65.7201 622.174 66.9201C622.294 67.2801 622.174 67.8801 622.054 68.2401C619.774 73.8801 618.694 79.6401 617.374 85.4001C616.534 89.6001 616.054 93.8001 616.414 97.8801C616.414 98.6001 616.654 101.96 617.494 101.96C618.214 101.96 620.374 99.4401 620.854 98.9601C624.454 94.7601 627.814 90.2001 631.174 85.7601C634.654 81.2001 638.254 76.7601 642.334 72.6801C643.174 71.8401 644.134 70.8801 645.094 70.1601C645.814 69.5601 646.534 69.3201 647.254 69.3201C647.614 69.3201 648.094 69.3201 648.454 69.4401C651.094 70.4001 651.574 71.1201 650.854 74.0001C649.654 78.8001 648.334 83.6001 647.134 88.4001C645.214 95.9601 644.374 103.52 644.854 110.96C644.974 111.92 645.334 116.24 646.654 116.24C647.254 116.24 649.654 113.48 650.134 112.88C652.774 109.52 655.294 106.04 657.934 102.56C660.454 99.0801 662.854 95.6001 665.374 92.1201C666.094 91.0401 666.934 90.0801 667.654 89.0001ZM698.453 92.0001C698.333 92.3601 698.093 93.0801 698.573 93.2001H698.813C699.413 93.2001 699.653 92.6001 699.893 92.2401C706.253 83.0001 712.853 73.8801 721.493 66.6801C722.333 65.8401 723.173 65.6001 724.013 65.6001C724.733 65.6001 725.453 65.8401 726.053 66.2001C727.492 67.1601 728.693 68.2401 727.973 70.2801C723.293 83.2401 719.213 95.6001 717.773 109.4C717.533 111.92 717.533 114.44 718.013 116.84C718.133 117.2 718.493 117.44 718.853 117.44C720.293 117.44 725.573 111.68 726.653 110.48C729.773 106.76 732.773 103.04 735.893 99.3201C738.533 96.3201 741.053 93.3201 743.693 90.3201C744.773 89.1201 745.613 88.5201 746.573 88.5201C747.413 88.5201 748.133 88.8801 748.973 89.7201C749.453 90.0801 749.453 90.5601 748.973 91.1601C748.613 91.6401 748.133 92.1201 747.773 92.6001C744.413 96.2001 741.413 99.9201 738.413 103.64C735.293 107.6 732.053 111.32 728.693 115.04C726.293 117.44 722.813 120.92 719.093 120.92C716.693 120.92 714.413 119.72 713.693 117.32C712.973 114.8 712.853 112.16 712.973 109.52C713.693 100.4 715.853 91.2801 718.853 82.2801C719.813 79.2801 721.133 76.2801 721.733 73.2801C719.333 73.2801 709.973 86.0001 708.173 88.5201C705.293 92.7201 702.413 96.8001 699.293 100.88C698.573 101.6 697.853 101.84 697.013 101.84C694.733 101.84 693.173 100.64 693.173 98.2401C693.173 90.8001 694.973 83.0001 696.893 75.9201C698.093 71.8401 698.093 70.6401 697.492 71.0001C694.493 72.5601 683.933 90.3201 682.013 93.6801C680.333 96.3201 678.773 99.0801 677.093 101.72C675.533 103.88 673.732 106.52 670.733 106.52C668.933 106.52 667.253 105.44 666.893 103.64C666.773 102.92 666.653 102.08 666.773 101.24C668.093 89.2401 670.733 79.0401 676.613 68.4801C676.973 67.7601 677.573 67.4001 678.293 67.4001C679.013 67.4001 679.973 67.8801 680.573 68.2401C682.013 68.9601 681.893 69.2001 680.812 70.7601C675.773 78.0801 673.133 90.3201 671.933 98.9601C671.813 99.2001 671.933 99.5601 672.053 99.5601C672.173 99.6801 672.293 99.6801 672.293 99.6801C672.533 99.6801 672.773 99.4401 673.013 99.2001C673.853 97.8801 674.813 96.5601 675.533 95.1201C679.373 88.7601 683.093 82.4001 687.413 76.1601C690.293 71.8401 693.533 67.2801 697.253 63.6801C698.213 62.7201 699.053 62.3601 700.013 62.3601C700.493 62.3601 700.973 62.4801 701.573 62.7201C704.213 63.9201 704.453 65.0001 703.853 67.5201C703.013 71.2401 702.053 74.9601 701.092 78.6801C699.893 83.1201 699.053 87.5601 698.453 92.0001ZM699.533 51.4401C703.613 50.7201 707.573 49.8801 711.653 49.2801C714.053 48.9201 716.453 48.6801 718.853 48.6801C722.933 48.6801 726.893 48.9201 727.613 53.9601C727.853 55.2801 728.093 56.6001 727.733 58.0401C727.733 58.1601 727.492 58.4001 727.253 58.5201C727.133 58.5201 726.773 58.5201 726.653 58.4001C725.933 57.8001 725.573 56.8401 725.573 55.7601C725.573 53.9601 724.493 53.4801 723.053 53.3601C722.093 53.2401 721.013 53.1201 720.053 53.1201C718.853 53.1201 717.653 53.2401 716.453 53.3601C712.013 54.0801 707.693 54.8001 703.253 55.5201C699.533 56.1201 695.933 56.7201 692.093 56.9601C687.893 56.9601 683.693 55.2801 683.693 50.2401C683.693 49.8801 683.813 49.2801 684.413 49.1601C684.653 49.0401 685.133 49.2801 685.253 49.4001C685.733 49.8801 686.093 50.4801 686.333 51.0801C686.693 52.2801 687.653 52.5201 688.973 52.6401C692.573 52.6401 696.053 52.0401 699.533 51.4401ZM743.762 103.52C743.282 100.04 743.522 96.3201 744.362 92.2401C745.082 91.2801 744.482 89.9601 745.082 88.7601C747.482 84.0801 749.642 79.4001 752.882 75.0801C756.242 70.7601 762.482 64.1601 768.242 64.1601C772.562 64.1601 775.562 68.2401 773.762 72.6801C770.282 81.2001 759.962 88.2801 751.562 90.9201C749.762 91.4001 749.162 92.3601 748.802 93.9201C747.962 97.5201 747.722 101.12 748.202 104.6C748.562 107.6 749.402 108.8 751.322 108.8C756.842 108.8 765.362 101.36 769.082 97.7601C771.962 95.0001 774.722 92.2401 777.602 89.4801C778.922 88.2801 779.762 87.8001 780.602 87.8001C781.322 87.8001 781.922 88.1601 782.882 88.7601C783.722 89.3601 783.722 89.8401 782.882 90.6801C779.162 94.4001 775.442 98.0001 771.602 101.6C766.922 105.92 759.962 111.56 753.362 111.56C748.442 111.56 744.602 108.56 743.762 103.52ZM752.282 84.9201C752.162 85.2801 751.922 85.7601 752.282 86.2401C752.402 86.2401 752.642 86.3601 752.882 86.2401C758.882 83.2401 767.762 76.6401 769.802 69.8001C770.042 69.0801 770.402 68.3601 769.922 67.7601C769.802 67.6401 769.562 67.5201 769.322 67.5201C768.962 67.5201 768.362 67.8801 768.002 68.0001C761.522 70.4001 755.282 79.1601 752.282 84.9201ZM837.021 88.8801C837.741 89.2401 837.981 89.7201 837.501 90.5601C837.501 90.6801 837.381 90.8001 837.381 90.9201C833.301 97.5201 829.461 104.36 824.661 110.6C823.101 112.64 821.421 114.44 819.621 116.36C818.301 117.56 816.501 118.28 814.821 118.28C812.541 118.28 810.381 116.96 809.901 114.32C809.541 112.04 809.541 109.64 809.661 107.24C809.901 100.52 811.221 93.9201 812.661 87.2001C813.741 81.9201 815.181 76.7601 816.381 71.4801C816.741 70.0401 817.221 68.4801 817.221 67.0401C816.141 67.0401 815.781 67.7601 815.301 68.2401C807.861 77.2401 801.261 86.4801 794.661 96.0801C793.581 97.6401 792.501 99.2001 791.421 100.64C789.741 102.92 787.581 105.44 784.581 105.44C782.421 105.44 780.621 104 779.781 102.08C778.461 98.7201 778.581 95.2401 779.661 91.5201C780.021 90.5601 780.741 90.0801 781.581 90.0801C782.661 90.0801 783.141 90.2001 784.101 90.8001C784.701 91.0401 784.821 91.5201 784.701 92.1201C784.221 93.9201 783.861 95.6001 783.741 97.4001C783.621 98.6001 783.741 99.6801 784.101 100.76C784.221 101 784.461 101.12 784.701 101.12C785.301 101.12 786.621 99.4401 786.981 98.9601C790.221 94.0401 812.661 60.3201 818.181 60.3201C818.781 60.3201 819.261 60.5601 819.861 60.8001C821.781 61.6401 822.861 63.0801 822.381 65.6001C821.901 68.0001 821.421 70.5201 820.821 72.9201C819.021 80.9601 816.981 89.0001 815.781 97.1601C815.061 101.6 814.461 106.04 814.461 110.36C814.581 111.44 814.581 112.4 814.701 113.48C814.821 113.84 815.061 114.08 815.301 114.08C817.341 114.08 826.821 99.0801 828.261 96.6801C829.821 94.1601 831.261 91.7601 832.821 89.2401C833.301 88.4001 833.901 88.0401 834.621 88.0401C835.461 88.0401 836.301 88.5201 837.021 88.8801ZM832.841 118.4C831.161 115.16 830.561 111.56 830.681 107.72C831.041 98.1201 833.321 88.7601 838.361 79.6401C839.321 77.9601 843.041 71.6001 845.321 71.6001C846.521 71.6001 848.201 73.0401 848.441 74.2401C843.401 79.0401 840.521 84.9201 838.361 91.0401C835.961 97.8801 835.001 104.6 835.241 111.32C835.361 112.88 836.441 120.68 838.601 120.68C841.841 120.68 846.161 113.12 847.001 110.48C846.641 110.24 846.281 110.24 845.921 110.24C845.561 110.24 845.201 110.24 844.841 110.24C843.281 110.24 842.441 110.12 841.241 109.04C839.681 107.84 839.441 106.16 840.281 104.12C841.001 102.56 843.401 100.4 845.561 100.52C847.121 100.52 848.441 101 849.521 101.96C850.001 102.32 850.361 102.44 850.721 102.44C851.681 102.44 854.801 99.6801 855.641 98.9601C859.121 95.9601 862.721 93.0801 866.201 90.0801C866.921 89.4801 867.521 89.0001 868.241 88.4001C868.721 88.0401 869.081 87.9201 869.561 87.9201C870.641 87.9201 871.841 89.1201 872.321 89.9601C872.561 90.3201 872.441 90.6801 872.201 90.9201L871.121 92.0001C865.481 96.5601 860.081 101.6 854.201 105.8C853.121 106.64 852.761 107.48 852.641 108.56C852.041 113.96 846.521 123.68 840.281 123.68C836.921 123.68 834.281 121.4 832.841 118.4ZM845.321 105.32C845.081 105.56 845.081 105.68 845.441 105.8C845.441 105.92 845.561 105.92 845.681 105.92C846.881 105.56 847.841 104.84 847.841 104.24C847.841 104 847.481 103.88 847.241 103.88C846.641 103.88 846.041 104.36 845.321 105.32Z" fill="black"/>
<path d="M432.589 217.64C432.949 217.76 433.189 218 432.829 218.48C432.589 218.96 432.229 219.44 431.749 219.92C427.549 225.08 423.229 230.12 418.909 235.16C415.429 239.24 408.229 246.56 402.349 246.56C399.109 246.56 396.709 245.24 396.109 241.76C395.629 238.52 395.629 235.04 396.109 231.44C396.709 226.52 397.669 221.48 399.229 214.28C399.709 211.28 400.669 206.12 401.509 200.96C401.629 200.36 401.629 199.76 401.629 199.28C401.629 199.04 401.509 198.8 401.269 198.8C400.789 198.8 399.949 199.52 399.709 199.88C387.109 213.68 378.229 228.92 369.229 245.24C368.389 246.92 366.829 247.64 365.389 247.64C363.709 247.64 362.149 246.92 362.149 245C362.149 230 367.069 208.16 373.789 194.96C374.149 194.12 374.749 193.76 375.589 193.76C376.189 193.76 376.909 194 377.509 194.24C378.829 194.84 378.949 195.32 378.229 196.64C372.949 206 369.229 224.36 367.909 234.8C367.909 235.16 367.789 235.52 367.909 235.88C367.909 236.12 368.029 236.36 368.149 236.36C368.269 236.36 368.629 236.24 368.749 236.12C369.349 235.16 369.829 234.2 370.429 233.24C373.789 226.88 393.709 194.12 401.869 194.12C403.309 194.12 404.509 194.72 405.829 195.68C406.669 196.28 406.789 197.36 406.669 198.44C405.829 205.76 404.509 212.84 402.949 220.16C401.869 225.2 401.149 230.24 400.909 235.16C400.789 237.44 400.789 239.6 401.149 241.64C401.269 242.48 401.629 244.04 402.589 244.04C404.749 244.04 411.949 236.84 413.389 235.04C417.109 230.84 420.709 226.52 424.309 222.32C425.269 221.12 426.229 219.92 427.309 218.72C428.269 217.64 429.349 217.04 430.549 217.04C431.269 217.04 431.869 217.16 432.589 217.64ZM485.782 215.12C486.622 215.12 487.462 215.48 488.182 215.84C489.142 216.44 489.622 217.16 489.382 217.64C488.782 218.36 488.062 218.12 487.342 218.24C485.542 218.72 483.742 218.96 482.062 219.68C471.502 223.64 460.222 228.92 452.062 236.96C450.862 238.16 449.422 239.36 448.102 240.44C447.142 241.16 446.302 241.4 445.462 241.4C444.622 241.4 443.902 241.16 443.182 240.68C442.582 240.32 442.462 239.48 443.062 238.88C444.022 238.04 444.862 237.08 445.942 236.36C454.702 229.64 462.622 216.2 464.182 205.04C464.422 203.96 464.422 202.76 464.182 201.68C463.942 200.96 463.582 200.6 462.742 200.6C459.622 200.6 454.702 205.28 452.662 207.56C439.702 221.84 432.742 240.92 428.182 259.4C427.582 261.68 427.222 264.08 427.102 266.36C427.102 268.04 425.902 268.52 424.462 268.52C424.102 268.52 423.622 268.52 423.382 268.4C422.422 268.28 421.822 267.68 421.822 266.6C422.182 259.76 422.302 252.92 423.262 245.96C426.262 225.2 431.422 204.92 437.662 184.76C438.022 183.68 438.622 183.2 439.462 183.2C439.582 183.2 439.822 183.2 440.062 183.32C440.422 183.44 440.782 183.56 441.022 183.68C442.462 184.4 442.582 184.64 442.222 186.32C441.382 189.44 440.542 192.68 439.582 195.8C436.102 207.56 433.342 219.44 430.822 231.44C430.582 232.16 430.222 233 430.702 233.84C431.662 233.24 431.902 232.28 432.262 231.44C436.822 221.12 449.422 197.84 461.182 197.84C465.382 197.84 468.382 200.72 468.502 205.16C468.502 209.12 467.302 213.08 465.862 217.04C465.142 218.6 464.302 220.16 463.582 221.72C463.342 222.32 462.862 222.8 463.222 223.4H463.582C464.182 223.4 464.662 222.92 465.262 222.68C470.062 220.28 480.382 215.12 485.782 215.12ZM485.486 217.76C482.126 212.6 484.166 203.72 488.606 198.2C492.566 193.4 497.726 190.64 503.846 190.64C514.046 190.64 521.606 198.8 520.646 208.88C520.166 213.32 518.846 217.64 517.166 221.72C516.806 222.44 517.046 222.92 517.526 222.92C520.046 222.92 528.086 217.64 530.366 216.08C531.566 215.24 532.286 214.76 533.006 214.76C533.606 214.76 534.326 215 535.406 215.72C536.366 216.32 536.366 217.04 535.166 217.88C529.286 222.08 522.806 225.56 515.726 227.24C514.766 227.36 514.166 227.96 513.686 228.68C509.846 235.04 503.726 243.32 495.686 243.32C492.926 243.32 490.406 242.24 488.366 240.2C485.246 236.96 484.046 232.76 484.406 227.96C484.526 225.8 484.886 223.76 485.606 221.6C486.086 220.16 486.206 218.96 485.486 217.76ZM489.806 205.64C488.726 208.04 488.246 210.44 488.366 212.96C488.366 213.2 488.486 213.56 488.606 213.44C488.966 213.44 489.326 213.32 489.566 213.2C489.926 212.84 490.166 212.36 490.406 211.88C491.486 210.44 494.366 206.36 496.406 206.36C497.246 206.36 498.086 206.84 499.046 207.68C500.126 208.76 498.326 209.36 497.726 210.2C497.486 210.8 496.886 211.16 496.526 211.64C494.486 214.04 493.046 216.56 491.726 219.32C491.366 220.16 491.366 220.88 492.086 221.48C495.086 224.36 500.126 225.68 504.206 225.68C505.766 225.68 507.326 225.56 509.006 225.2C512.006 224.6 515.126 212.96 515.606 210.32C516.446 206 516.326 201.92 514.406 198.32C512.606 194.96 510.086 193.4 506.606 193.4C498.806 193.4 492.806 198.8 489.806 205.64ZM489.926 224.6C488.846 228.56 489.086 232.28 490.286 235.76C490.886 237.44 492.926 241.04 494.966 241.04C499.526 241.04 506.126 232.4 507.806 228.68C507.326 228.56 506.966 228.44 506.486 228.44C501.086 228.2 496.166 226.88 491.846 224.24C491.726 224.12 491.486 224 491.246 223.88C490.646 223.88 490.046 223.88 489.926 224.6ZM530.598 230.84C530.118 227.36 530.358 223.64 531.198 219.56C531.918 218.6 531.318 217.28 531.918 216.08C534.318 211.4 536.478 206.72 539.718 202.4C543.078 198.08 549.318 191.48 555.078 191.48C559.398 191.48 562.398 195.56 560.598 200C557.118 208.52 546.798 215.6 538.398 218.24C536.598 218.72 535.998 219.68 535.638 221.24C534.798 224.84 534.558 228.44 535.038 231.92C535.398 234.92 536.238 236.12 538.158 236.12C543.678 236.12 552.198 228.68 555.918 225.08C558.798 222.32 561.558 219.56 564.438 216.8C565.758 215.6 566.598 215.12 567.438 215.12C568.158 215.12 568.758 215.48 569.718 216.08C570.558 216.68 570.558 217.16 569.718 218C565.998 221.72 562.278 225.32 558.438 228.92C553.758 233.24 546.798 238.88 540.198 238.88C535.278 238.88 531.438 235.88 530.598 230.84ZM539.118 212.24C538.998 212.6 538.758 213.08 539.118 213.56C539.238 213.56 539.478 213.68 539.718 213.56C545.718 210.56 554.598 203.96 556.638 197.12C556.878 196.4 557.238 195.68 556.758 195.08C556.638 194.96 556.398 194.84 556.158 194.84C555.798 194.84 555.198 195.2 554.838 195.32C548.358 197.72 542.118 206.48 539.118 212.24ZM563.377 241.4C561.817 241.04 561.457 240.56 561.577 238.76C561.697 237.56 561.937 236.36 562.177 235.28C563.377 228.08 564.697 221 565.897 213.8C566.977 205.76 569.257 197.72 570.817 189.68L571.177 188.24C571.417 187.64 571.777 187.28 572.377 187.28C572.977 187.28 573.577 187.4 574.177 187.64C575.377 188.12 575.977 188.84 575.617 190.28L572.737 203.6C571.777 207.32 571.057 211.04 570.457 214.76C570.337 215.48 570.577 215.84 571.057 215.84C571.177 215.84 571.417 215.72 571.657 215.6C583.057 208.52 592.657 198.2 600.697 187.64C601.777 186.2 602.497 185.48 603.217 185.48C603.817 185.48 604.537 185.96 605.377 186.8C606.217 187.64 606.217 188.12 605.137 189.56C596.257 202.28 586.657 210.2 574.417 218.96C570.937 221.6 570.337 223.16 572.137 226.4C574.177 230.12 577.057 232.28 581.257 232.28C591.697 232.28 602.857 223.04 610.417 216.8C611.377 215.96 612.337 215.6 613.057 215.6C613.897 215.6 614.617 215.96 615.457 216.92C615.817 217.16 615.817 217.64 615.457 218.12C615.097 218.6 614.617 219.08 614.137 219.44C605.977 226.4 594.817 234.92 583.657 234.92C579.217 234.92 575.377 233.36 572.017 230.6L571.297 229.88C570.457 229.28 570.097 228.08 568.897 227.84C567.577 228.92 567.937 230.24 567.817 231.44C567.577 234.2 566.857 236.84 566.857 239.48C566.857 241.04 565.657 241.52 564.337 241.52C563.977 241.52 563.617 241.52 563.377 241.4ZM642.671 219.32C642.551 219.68 642.311 220.4 642.791 220.52H643.031C643.631 220.52 643.871 219.92 644.111 219.56C650.471 210.32 657.071 201.2 665.711 194C666.551 193.16 667.391 192.92 668.231 192.92C668.951 192.92 669.671 193.16 670.271 193.52C671.711 194.48 672.911 195.56 672.191 197.6C667.511 210.56 663.431 222.92 661.991 236.72C661.751 239.24 661.751 241.76 662.231 244.16C662.351 244.52 662.711 244.76 663.071 244.76C664.511 244.76 669.791 239 670.871 237.8C673.991 234.08 676.991 230.36 680.111 226.64C682.751 223.64 685.271 220.64 687.911 217.64C688.991 216.44 689.831 215.84 690.791 215.84C691.631 215.84 692.351 216.2 693.191 217.04C693.671 217.4 693.671 217.88 693.191 218.48C692.831 218.96 692.351 219.44 691.991 219.92C688.631 223.52 685.631 227.24 682.631 230.96C679.511 234.92 676.271 238.64 672.911 242.36C670.511 244.76 667.031 248.24 663.311 248.24C660.911 248.24 658.631 247.04 657.911 244.64C657.191 242.12 657.071 239.48 657.191 236.84C657.911 227.72 660.071 218.6 663.071 209.6C664.031 206.6 665.351 203.6 665.951 200.6C663.551 200.6 654.191 213.32 652.391 215.84C649.511 220.04 646.631 224.12 643.511 228.2C642.791 228.92 642.071 229.16 641.231 229.16C638.951 229.16 637.391 227.96 637.391 225.56C637.391 218.12 639.191 210.32 641.111 203.24C642.311 199.16 642.311 197.96 641.711 198.32C638.711 199.88 628.151 217.64 626.231 221C624.551 223.64 622.991 226.4 621.311 229.04C619.751 231.2 617.951 233.84 614.951 233.84C613.151 233.84 611.471 232.76 611.111 230.96C610.991 230.24 610.871 229.4 610.991 228.56C612.311 216.56 614.951 206.36 620.831 195.8C621.191 195.08 621.791 194.72 622.511 194.72C623.231 194.72 624.191 195.2 624.791 195.56C626.231 196.28 626.111 196.52 625.031 198.08C619.991 205.4 617.351 217.64 616.151 226.28C616.031 226.52 616.151 226.88 616.271 226.88C616.391 227 616.511 227 616.511 227C616.751 227 616.991 226.76 617.231 226.52C618.071 225.2 619.031 223.88 619.751 222.44C623.591 216.08 627.311 209.72 631.631 203.48C634.511 199.16 637.751 194.6 641.471 191C642.431 190.04 643.271 189.68 644.231 189.68C644.711 189.68 645.191 189.8 645.791 190.04C648.431 191.24 648.671 192.32 648.071 194.84C647.231 198.56 646.271 202.28 645.311 206C644.111 210.44 643.271 214.88 642.671 219.32ZM643.751 178.76C647.831 178.04 651.791 177.2 655.871 176.6C658.271 176.24 660.671 176 663.071 176C667.151 176 671.111 176.24 671.831 181.28C672.071 182.6 672.311 183.92 671.951 185.36C671.951 185.48 671.711 185.72 671.471 185.84C671.351 185.84 670.991 185.84 670.871 185.72C670.151 185.12 669.791 184.16 669.791 183.08C669.791 181.28 668.711 180.8 667.271 180.68C666.311 180.56 665.231 180.44 664.271 180.44C663.071 180.44 661.871 180.56 660.671 180.68C656.231 181.4 651.911 182.12 647.471 182.84C643.751 183.44 640.151 184.04 636.311 184.28C632.111 184.28 627.911 182.6 627.911 177.56C627.911 177.2 628.031 176.6 628.631 176.48C628.871 176.36 629.351 176.6 629.471 176.72C629.951 177.2 630.311 177.8 630.551 178.4C630.911 179.6 631.871 179.84 633.191 179.96C636.791 179.96 640.271 179.36 643.751 178.76ZM690.381 234.68C687.381 234.68 685.461 232.76 685.581 229.64C685.581 227.12 686.181 224.72 687.141 222.32C691.101 211.64 700.821 197 713.541 197C715.941 197 718.341 197.6 720.261 198.8C720.981 199.28 721.341 199.52 721.701 199.52C722.181 199.52 722.661 199.04 723.621 198.2C725.541 196.16 727.461 194 729.621 192.2C730.941 191.12 731.901 190.52 732.861 190.52C733.581 190.52 734.301 190.88 735.261 191.36C736.701 192.2 737.181 193.4 736.581 195.08C735.861 197.72 735.021 200.48 734.181 203.12C732.501 208.52 730.701 213.92 729.021 219.44C726.981 226.28 725.301 233.12 724.461 240.08C724.101 243.32 723.981 246.56 724.221 249.8C724.221 250.76 724.461 251.72 724.701 252.8C724.821 253.52 725.181 253.88 725.661 253.76C727.461 253.28 732.861 246.44 734.061 244.88C738.741 238.4 743.421 231.92 748.221 225.56C750.021 222.92 751.941 220.4 753.861 217.88C754.701 216.8 755.781 216.2 756.861 216.2C757.821 216.2 758.541 216.56 759.261 217.28C759.501 217.52 759.501 217.88 759.261 218.24C759.141 218.6 758.901 218.84 758.661 219.2C751.941 227.96 745.941 237.08 738.981 245.72C737.421 247.64 735.981 249.56 734.301 251.36C731.901 253.88 728.781 257 724.941 256.88C722.061 256.88 720.261 255.68 719.661 252.92C719.061 250.28 718.941 247.4 719.061 244.52C719.781 231.44 723.861 218.72 728.061 206.48C728.781 204.08 729.501 201.8 730.221 199.52C730.341 199.16 730.341 198.8 729.861 198.68C729.741 198.68 729.381 198.8 729.261 199.04C728.301 199.88 727.461 200.72 726.621 201.68C718.221 210.56 709.941 219.32 701.301 227.84C698.781 230.48 694.221 234.68 690.381 234.68ZM690.501 229.16C690.381 229.28 690.381 229.52 690.381 229.76C690.381 230.36 690.621 230.72 690.981 230.72C693.861 230.72 716.061 206.36 718.341 203.6C718.821 203.12 718.941 202.52 718.821 201.92C718.461 200.36 717.741 199.76 716.061 199.76C703.341 199.88 693.501 217.04 690.741 227.72C690.621 228.2 690.501 228.68 690.501 229.16Z" fill="black"/>
<path d="M218.016 94C192.86 94 167.983 100.577 145.088 110.873C103.651 129.507 66.9693 157.338 34.7203 189.084C23.038 200.584 10.9137 212.936 3.84619 227.856" stroke="black" stroke-width="4" stroke-linecap="round"/>
<path d="M2 227.856C8.39244 218.906 12.9328 205.702 15.4369 195.135C16.4201 190.987 16.7703 186.858 16.7703 182.622" stroke="black" stroke-width="4" stroke-linecap="round"/>
<path d="M2.9231 226.009C9.45173 220.074 18.6787 217.015 26.7197 213.906C37.0494 209.912 47.4503 207.617 58.3118 205.7" stroke="black" stroke-width="4" stroke-linecap="round"/>
</svg>
