<svg width="200" height="200" viewBox="0 0 200 200" fill="none" xmlns="http://www.w3.org/2000/svg">
<path d="M79.1668 137.5L137.5 100L79.1668 62.5001V137.5ZM100 183.333C88.4723 183.333 77.639 181.146 67.5001 176.771C57.3612 172.396 48.5417 166.458 41.0417 158.958C33.5417 151.458 27.6042 142.639 23.2292 132.5C18.8542 122.361 16.6667 111.528 16.6667 100C16.6667 88.4723 18.8542 77.639 23.2292 67.5001C27.6042 57.3612 33.5417 48.5417 41.0417 41.0417C48.5417 33.5417 57.3612 27.6042 67.5001 23.2292C77.639 18.8542 88.4723 16.6667 100 16.6667C111.528 16.6667 122.361 18.8542 132.5 23.2292C142.639 27.6042 151.458 33.5417 158.958 41.0417C166.458 48.5417 172.396 57.3612 176.771 67.5001C181.146 77.639 183.333 88.4723 183.333 100C183.333 111.528 181.146 122.361 176.771 132.5C172.396 142.639 166.458 151.458 158.958 158.958C151.458 166.458 142.639 172.396 132.5 176.771C122.361 181.146 111.528 183.333 100 183.333ZM100 166.667C118.611 166.667 134.375 160.208 147.292 147.292C160.208 134.375 166.667 118.611 166.667 100C166.667 81.389 160.208 65.6251 147.292 52.7084C134.375 39.7917 118.611 33.3334 100 33.3334C81.389 33.3334 65.6251 39.7917 52.7084 52.7084C39.7917 65.6251 33.3334 81.389 33.3334 100C33.3334 118.611 39.7917 134.375 52.7084 147.292C65.6251 160.208 81.389 166.667 100 166.667Z" fill="#F5BE1A"/>
</svg>
